<?xml version="1.0" encoding="UTF-8"?>
<svg width="125px" height="125px" viewBox="0 0 125 125" version="1.1" xmlns="http://www.w3.org/2000/svg" xmlns:xlink="http://www.w3.org/1999/xlink">
    <title>编组</title>
    <g id="页面-1" stroke="none" stroke-width="1" fill="none" fill-rule="evenodd">
        <g id="编组" transform="translate(1.000000, 1.000000)">
            <circle id="椭圆形" stroke="#05050E" fill-opacity="0.1" fill="#FFFFFF" fill-rule="nonzero" opacity="0.3" cx="61.2510121" cy="61.2510121" r="61.2510121"></circle>
            <path d="M80.147298,43.1917239 C80.1322591,43.160949 80.1071611,43.1369466 80.076685,43.1238 C76.5546024,41.4269976 72.8376121,40.2170162 69.0190348,39.5242324 C68.9843757,39.5174599 68.9485215,39.5223401 68.916651,39.5381757 C68.884681,39.5540113 68.8583879,39.5800057 68.8413571,39.6124737 C68.3352146,40.5770526 67.8757822,41.5677255 67.464753,42.5809069 C63.3484858,41.9248737 59.1615061,41.9248737 55.0452389,42.5809069 C54.6315206,41.5652356 54.1647182,40.5741644 53.6469231,39.6124737 C53.6291951,39.5807028 53.6028024,39.5553061 53.5710316,39.53957 C53.5393603,39.523834 53.5039045,39.5184559 53.4692453,39.5242324 C49.65017,40.2155223 45.9330802,41.4256032 42.4112964,43.1238996 C42.3812186,43.1373449 42.3557223,43.1602518 42.3384923,43.1894332 C35.2958211,54.2327417 33.3665636,65.0044543 34.3130162,75.6428089 C34.3156057,75.6689028 34.3232745,75.6941004 34.3354251,75.7170073 C34.3475757,75.7399142 34.3639093,75.7600324 34.3836291,75.7761668 C38.4845587,78.9644065 43.0715126,81.3980138 47.9486866,82.9731109 C47.983047,82.9839668 48.019698,82.9834688 48.0537595,82.9718162 C48.0878211,82.960064 48.1176996,82.9376551 48.1393117,82.9075773 C49.1867538,81.4110607 50.1149806,79.8263028 50.9143312,78.1695377 C50.9253862,78.1467304 50.9316607,78.1218316 50.9327563,78.0963352 C50.9339514,78.0709385 50.929868,78.0454421 50.921004,78.0217385 C50.9121401,77.9980348 50.8984955,77.9765223 50.881166,77.9587943 C50.8638364,77.9409668 50.8430211,77.9272227 50.8202138,77.9184583 C49.3565636,77.330349 47.9395239,76.6215304 46.5825401,75.7984761 C46.5578405,75.7833377 46.5371247,75.7619247 46.522285,75.7363287 C46.5073457,75.7107328 46.4985814,75.681651 46.4968883,75.6516729 C46.4952947,75.6216947 46.5005733,75.5917166 46.5125247,75.5644275 C46.5244761,75.5371385 46.542702,75.5134348 46.5654097,75.4952089 C46.850949,75.271319 47.1316081,75.0404575 47.4069887,74.8029231 C47.4311903,74.7820081 47.4603717,74.7686623 47.4914453,74.7642802 C47.5224194,74.7597984 47.5539911,74.7646785 47.5825749,74.7780243 C56.4730348,79.0384057 66.0982081,79.0384057 74.8834955,74.7780243 C74.9121789,74.7637822 74.9440494,74.7583045 74.9755215,74.7622883 C75.0069935,74.7663717 75.0367725,74.7796178 75.0612729,74.8006324 C75.3370518,75.0394615 75.6183085,75.2710202 75.9050429,75.4952089 C75.9278502,75.5132356 75.9461757,75.5368397 75.9583263,75.5640291 C75.9704769,75.5912186 75.9760543,75.6210972 75.9745603,75.6510753 C75.9730664,75.6810534 75.9646008,75.7101352 75.9498607,75.7359304 C75.9351206,75.7616259 75.914604,75.7831385 75.890004,75.7984761 C74.5361077,76.628502 73.1177733,77.3369223 71.6502389,77.9161676 C71.6275312,77.9253304 71.6068154,77.9393733 71.5895854,77.9574 C71.5722559,77.9755263 71.5588105,77.9972381 71.5501457,78.0211409 C71.5413814,78.0450437 71.5375968,78.0706397 71.5388915,78.0962356 C71.5402858,78.121732 71.5467595,78.1467304 71.5579142,78.1695377 C72.3707101,79.8170405 73.2975425,81.3998065 74.3308421,82.9049879 C74.3518567,82.9358623 74.381536,82.9589684 74.4156972,82.9712186 C74.4499579,82.9833692 74.4869077,82.9839668 74.5214672,82.9729117 C79.4074057,81.4030931 84.0023271,78.9692866 88.1084356,75.7761668 C88.1283547,75.7608291 88.1450866,75.7412089 88.1572372,75.7186008 C88.1693879,75.6959927 88.1768575,75.6708947 88.1790486,75.645 C89.3121425,63.345996 86.2821595,52.6625247 80.147298,43.1917239 Z M52.2421336,69.1651409 C49.5654146,69.1651409 47.3598802,66.5860251 47.3598802,63.4185012 C47.3598802,60.2509773 49.5225887,57.6715628 52.2421336,57.6715628 C54.9827927,57.6715628 57.1670138,60.2733862 57.1241879,63.418302 C57.1241879,66.5860251 54.9613798,69.1651409 52.2421336,69.1651409 Z M70.2930559,69.1651409 C67.6164364,69.1651409 65.4110016,66.5860251 65.4110016,63.4185012 C65.4110016,60.2509773 67.5737101,57.6715628 70.2930559,57.6715628 C73.0340138,57.6715628 75.2180356,60.2733862 75.1753093,63.418302 C75.1753093,66.5860251 73.0340138,69.1651409 70.2930559,69.1651409 Z" id="形状" fill="#05050E" fill-rule="nonzero"></path>
            <line x1="109.05668" y1="123" x2="122.721134" y2="109.05668" id="路径" stroke="#05050E" stroke-width="2"></line>
            <polyline id="路径" stroke="#05050E" stroke-width="2" points="109.05668 109.05668 123 109.05668 123 123"></polyline>
        </g>
    </g>
</svg>