<?xml version="1.0" encoding="UTF-8"?>
<svg width="125px" height="125px" viewBox="0 0 125 125" version="1.1" xmlns="http://www.w3.org/2000/svg" xmlns:xlink="http://www.w3.org/1999/xlink">
    <title>编组</title>
    <g id="页面-1" stroke="none" stroke-width="1" fill="none" fill-rule="evenodd">
        <g id="编组" transform="translate(1.000000, 1.000000)">
            <circle id="椭圆形" stroke="#05050E" fill-opacity="0.1" fill="#FFFFFF" fill-rule="nonzero" opacity="0.3" cx="61.2510121" cy="61.2510121" r="61.2510121"></circle>
            <path d="M53.0936721,49.843783 L53.0936721,81.3676372 C53.0936721,81.8151182 52.9801336,82.1958704 52.7529571,82.5098939 C52.5258802,82.8239174 52.19383,82.9809789 51.7568065,82.9809789 C51.4471652,82.9809789 51.1471846,82.9091709 50.8568648,82.7657538 L38.1693401,76.5034105 C37.7873927,76.3238405 37.4645053,76.0238599 37.2006777,75.6034688 C36.9368502,75.1829781 36.8049862,74.7666704 36.8049862,74.354247 L36.8049862,43.7168891 C36.8049862,43.3587449 36.8961158,43.054183 37.0784745,42.8034024 C37.2608332,42.5525223 37.5245611,42.427132 37.8699571,42.427132 C38.1245223,42.427132 38.5248947,42.5615854 39.0707757,42.8304923 L53.0127012,49.7098275 C53.0677773,49.7640073 53.0952656,49.8086259 53.0952656,49.843783 L53.0936721,49.843783 Z M54.8400729,52.5572526 L69.4099457,75.8306453 L54.8400729,68.6819053 L54.8400729,52.5572526 Z M85.6971377,53.0418826 L85.6971377,81.3676372 C85.6971377,81.8151182 85.5698551,82.1777441 85.3151903,82.4557142 C85.0605255,82.7335846 84.7147312,82.8726194 84.2777077,82.8726194 C83.8407838,82.8726194 83.4134211,82.7561927 82.9958186,82.5234389 L70.9638291,76.6102761 L85.6971377,53.0418826 Z M85.6146729,49.8166931 C85.6146729,49.8708729 83.2820551,53.6288964 78.616919,61.090664 C73.951783,68.5524316 71.2189919,72.9194794 70.4183466,74.1917077 L59.7781992,57.1535684 L68.6184632,42.9899441 C68.9281045,42.4882834 69.401281,42.2375028 70.0378931,42.2375028 C70.2925579,42.2375028 70.5288972,42.2911846 70.7468113,42.3985482 L85.5077077,49.6541538 C85.5800138,49.6903069 85.6161668,49.7439887 85.6161668,49.8151992 L85.6146729,49.8166931 Z" id="形状" fill="#05050E" fill-rule="nonzero"></path>
            <line x1="109.05668" y1="123" x2="122.721134" y2="109.05668" id="路径" stroke="#05050E" stroke-width="2"></line>
            <polyline id="路径" stroke="#05050E" stroke-width="2" points="109.05668 109.05668 123 109.05668 123 123"></polyline>
        </g>
    </g>
</svg>