<?xml version="1.0" encoding="UTF-8"?>
<svg width="125px" height="125px" viewBox="0 0 125 125" version="1.1" xmlns="http://www.w3.org/2000/svg" xmlns:xlink="http://www.w3.org/1999/xlink">
    <title>编组</title>
    <g id="页面-1" stroke="none" stroke-width="1" fill="none" fill-rule="evenodd">
        <g id="编组" transform="translate(1.000000, 1.000000)">
            <circle id="椭圆形" stroke="#05050E" fill-opacity="0.1" fill="#FFFFFF" fill-rule="nonzero" opacity="0.3" cx="61.2510121" cy="61.2510121" r="61.2510121"></circle>
            <path d="M87.6351595,58.3333725 C88.42963,57.8567101 89.0353676,57.6680769 89.4524721,57.7673733 C89.8694769,57.8666696 90.0780291,58.1943377 90.0780291,58.7504769 L90.0780291,77.280651 C90.0780291,78.7106347 89.9092154,79.852596 89.5715879,80.7066243 C89.2339603,81.5606526 88.777217,82.1961692 88.2011587,82.6132737 C87.6252,83.0303781 86.9499449,83.2984883 86.1753935,83.417604 C85.4008421,83.5368194 84.5567733,83.5963773 83.643187,83.5963773 L81.0215441,83.5963773 C79.7106729,83.5963773 78.1317911,83.5864178 76.2846996,83.5665984 C74.4376081,83.5466794 72.382064,83.5368194 70.117868,83.5368194 L63.1468057,83.5368194 L56.1159862,83.5368194 L49.6811441,83.5368194 L44.4378583,83.5368194 L41.1012219,83.5368194 C39.6712348,83.5368194 38.499498,83.3480866 37.5858121,82.9707206 C36.6722259,82.5933547 35.9572324,82.1068324 35.4409312,81.5109547 C34.9245304,80.9151765 34.5669838,80.2299619 34.3683911,79.4554105 C34.1697984,78.6807595 34.070502,77.8764291 34.070502,77.0423198 L34.070502,59.3462551 C34.070502,58.5518842 34.2690947,58.0453433 34.6662802,57.8269312 C35.0635652,57.6084194 35.560047,57.6978559 36.1559247,58.0950413 C36.3147789,58.2142567 36.6722259,58.4524883 37.2283652,58.8100348 C37.7845045,59.1674818 38.4299806,59.5746267 39.1647935,60.0314696 C39.8996065,60.4883126 40.6841174,60.9748348 41.5183263,61.4912356 C42.3524356,62.0076364 43.126987,62.4842988 43.8419806,62.9212227 C44.5569741,63.3581466 45.1726713,63.7454721 45.6890721,64.0830996 C46.2054729,64.4207271 46.5431004,64.6292794 46.7019547,64.7086567 C47.2183555,65.0264648 47.4566866,65.3740518 47.4169482,65.7514178 C47.3772097,66.1287838 47.2580939,66.4762713 47.0595012,66.7940794 C46.9005474,67.1118874 46.6622162,67.6083692 46.3445077,68.2836243 C46.0266996,68.9588794 45.6890721,69.664013 45.3316251,70.3988259 C44.9740785,71.1336389 44.636451,71.828813 44.3186429,72.4842486 C44.0009344,73.1395846 43.7626032,73.606387 43.6036494,73.8844567 C43.4050567,74.2021652 43.3355393,74.4702753 43.3951968,74.688787 C43.4547547,74.9071992 43.5640105,75.0761126 43.7228648,75.1952283 C43.881719,75.3144437 44.0803117,75.3442227 44.3186429,75.2845652 C44.5569741,75.2250073 44.7754858,75.076013 44.9740785,74.8376818 C45.0932939,74.718566 45.4011425,74.3709789 45.8976243,73.7950202 C46.3941061,73.2190615 46.9402858,72.5935045 47.5361636,71.9181498 C48.1319417,71.2428947 48.6980405,70.6173377 49.2342607,70.0413789 C49.770481,69.4654202 50.118068,69.0979142 50.2769223,68.9390599 C50.475515,68.7404672 50.7833636,68.5120955 51.200468,68.2538453 C51.6175725,67.9956947 52.0445368,67.9659158 52.4814607,68.1645085 C52.7197919,68.3233628 53.1269368,68.5914729 53.7028955,68.9688389 C54.2788543,69.3462049 54.9144704,69.7533498 55.6095449,70.1902737 C56.304719,70.6271976 56.9997935,71.074081 57.6949676,71.5309239 C58.3900421,71.9876672 58.9759603,72.3551733 59.4526227,72.6331433 C59.929285,72.9509514 60.4357263,73.1495441 60.9719466,73.2290211 C61.5082664,73.3083984 62.0147077,73.3283174 62.49137,73.2885789 C62.9680324,73.2488405 63.4049563,73.1595036 63.8021417,73.0204688 C64.1994267,72.881434 64.4973158,72.7523587 64.6959085,72.6331433 C64.9342397,72.5140275 65.390983,72.2557773 66.0663377,71.8585919 C66.7415927,71.4614065 67.4764057,71.0145231 68.2708761,70.5180413 C69.065247,70.0214599 69.8100194,69.5547571 70.5051935,69.1178332 C71.2003676,68.6809093 71.6868899,68.3829206 71.9649595,68.2240664 C72.4018834,67.9857352 72.7792494,67.9162178 73.0970575,68.0155142 C73.414766,68.1148105 73.7524931,68.3233628 74.1099401,68.6411709 C74.2687943,68.7602866 74.5866024,69.1178332 75.0632648,69.7136113 C75.5399271,70.3094891 76.0661879,70.9549652 76.6422462,71.6500397 C77.2182049,72.3452138 77.7544251,73.0105093 78.2509069,73.6461255 C78.7474883,74.2816421 79.0949757,74.718566 79.293668,74.9568972 C79.5319992,75.2349668 79.7801903,75.3838615 80.0384405,75.4037806 C80.2965911,75.4236 80.5151028,75.3640421 80.6937765,75.2250073 C80.8725498,75.0859725 80.9917652,74.8873798 81.0513231,74.6292291 C81.110881,74.3709789 81.0413636,74.0830494 80.8427709,73.7652413 C80.7632939,73.606387 80.6044397,73.2190615 80.3661085,72.6033644 C80.1277773,71.9876672 79.8596672,71.3025522 79.5617781,70.5478202 C79.2637895,69.7930883 78.9559409,69.0582753 78.6382324,68.3432818 C78.3204243,67.6282883 78.0820931,67.1118874 77.9232389,66.7940794 C77.6054308,66.1983012 77.436617,65.7216389 77.4167976,65.3640923 C77.3968785,65.0066453 77.6054308,64.6888372 78.0423547,64.4107676 C78.16157,64.3313903 78.6580518,64.0135822 79.5319992,63.4574429 C80.405847,62.9014032 81.3789911,62.2757466 82.4515312,61.5805725 C83.5239717,60.885498 84.5666332,60.2300623 85.5796154,59.6143652 C86.592498,58.998668 87.2777126,58.5717036 87.6351595,58.3333725 Z M62.0742656,68.581613 C61.8756729,68.6212518 61.5380453,68.5219555 61.061383,68.2836243 C60.5847206,68.0452931 60.0485004,67.747404 59.4526227,67.3899571 C57.3473806,66.2379401 55.2421385,65.0463838 53.1368964,63.8149895 C51.3097239,62.7821879 49.3533765,61.6600494 47.2680534,60.4485741 C45.1826308,59.2369992 43.2462024,58.1148607 41.4587684,57.0821587 L41.4587684,46.3572559 L41.5778842,46.3572559 L41.5778842,46.297698 C41.5778842,45.2648964 41.7764769,44.3017117 42.1736623,43.4079449 C42.5709474,42.5141781 43.1071676,41.7296672 43.7824227,41.0544121 C44.4576777,40.3791571 45.2421887,39.8429368 46.1359555,39.4457514 C47.0297223,39.0484664 47.9929069,38.8498737 49.0257085,38.8498737 L75.1228227,38.8498737 C76.1556243,38.8498737 77.1287684,39.0484664 78.0423547,39.4457514 C78.9559409,39.8429368 79.7504113,40.3791571 80.4256664,41.0544121 C81.1009215,41.7296672 81.6372413,42.5141781 82.0344267,43.4079449 C82.4316121,44.3017117 82.6302049,45.2648964 82.6302049,46.297698 L82.6302049,46.3572559 L82.7494202,46.3572559 L82.7494202,57.0821587 C80.9222478,58.1148607 78.9659004,59.2369992 76.8805773,60.4485741 C74.7951547,61.6600494 72.8388073,62.7821879 71.0116348,63.8149895 C68.8666543,65.0463838 66.7614121,66.2578591 64.6959085,67.449515 C64.3383619,67.6481077 63.8716591,67.8864389 63.2957004,68.1645085 C62.7197417,68.4425781 62.3125968,68.581613 62.0742656,68.581613 Z M52.7793498,50.0514389 L71.4287393,50.0514389 L71.4287393,46.297698 L52.7793498,46.297698 L52.7793498,50.0514389 Z M52.7793498,57.4992632 L71.4287393,57.4992632 L71.4287393,53.7455223 L52.7793498,53.7455223 L52.7793498,57.4992632 Z" id="形状" fill="#05050E" fill-rule="nonzero"></path>
            <line x1="109.05668" y1="123" x2="122.721134" y2="109.05668" id="路径" stroke="#05050E" stroke-width="2"></line>
            <polyline id="路径" stroke="#05050E" stroke-width="2" points="109.05668 109.05668 123 109.05668 123 123"></polyline>
        </g>
    </g>
</svg>