<svg width="88" height="88" viewBox="0 0 88 88" fill="none" xmlns="http://www.w3.org/2000/svg">
<path d="M22 44.0001C9.82668 44.0001 0 53.8267 0 66.0001C0 78.1734 9.82668 88.0001 22 88.0001C34.1734 88.0001 44.0001 78.1734 44.0001 66.0001H22V44.0001Z" fill="black"/>
<path d="M44 22H22V44C34.1734 44 44 53.8267 44 66.0001H66.0001V44C53.8267 44 44 34.1734 44 22Z" fill="black"/>
<path d="M66 0C53.8267 0 44 9.82668 44 22H66V44.0001C78.1734 44.0001 88.0001 34.1734 88.0001 22C88.0001 9.82668 78.1734 0 66 0Z" fill="black"/>
</svg>
