<svg width="88" height="88" viewBox="0 0 88 88" fill="none" xmlns="http://www.w3.org/2000/svg">
<path d="M22 44C9.82667 44 0 53.8267 0 66C0 78.1733 9.82667 88 22 88C34.1733 88 44 78.1733 44 66H22V44Z" fill="black"/>
<path d="M66 44V66H44C44 78.1733 53.8267 88 66 88C78.1733 88 88 78.1733 88 66C88 53.8756 78.1733 44 66 44Z" fill="black"/>
<path d="M44 22C44 9.82667 34.1733 0 22 0C9.82667 0 0 9.82667 0 22C0 34.1733 9.82667 44 22 44V22H44Z" fill="black"/>
<path d="M44 66C56.1503 66 66 56.1503 66 44C66 31.8497 56.1503 22 44 22C31.8497 22 22 31.8497 22 44C22 56.1503 31.8497 66 44 66Z" fill="black"/>
<path d="M66 0C53.8267 0 44 9.82667 44 22H66V44C78.1733 44 88 34.1733 88 22C88 9.87556 78.1733 0 66 0Z" fill="black"/>
</svg>
