<?xml version="1.0" encoding="UTF-8"?>
<svg width="126px" height="126px" viewBox="0 0 126 126" version="1.1" xmlns="http://www.w3.org/2000/svg" xmlns:xlink="http://www.w3.org/1999/xlink">
    <title>email</title>
    <g id="页面-1" stroke="none" stroke-width="1" fill="none" fill-rule="evenodd">
        <g id="email" transform="translate(1.000000, 1.000000)">
            <circle id="椭圆形" stroke="#05050E" fill-opacity="0.1" fill="#FFFFFF" fill-rule="nonzero" opacity="0.3" cx="61.5" cy="61.5" r="61.5"></circle>
            <line x1="109.5" y1="123.5" x2="123.22" y2="109.5" id="路径" stroke="#05050E" stroke-width="2"></line>
            <polyline id="路径" stroke="#05050E" stroke-width="2" points="109.5 109.5 123.5 109.5 123.5 123.5"></polyline>
            <path d="M65.277,46.1336 L75.2895,35.841 L81.101,41.7925 L70.5983,51.805 L85.372,51.805 L85.372,60.067 L70.5283,60.067 L81.101,70.3362 L75.2895,76.171 L60.936,61.7475 L46.5825,76.171 L40.771,70.3595 L51.3436,60.0902 L36.5,60.0902 L36.5,51.805 L51.2736,51.805 L40.771,41.7925 L46.5825,35.841 L56.595,46.1336 L56.595,31.5 L65.277,31.5 L65.277,46.1336 Z M56.595,71.9 L65.277,71.9 L65.277,91.5047 L56.595,91.5047 L56.595,71.9 Z" id="形状" fill="#000000" fill-rule="nonzero"></path>
        </g>
    </g>
</svg>