<?xml version="1.0" encoding="UTF-8"?>
<svg width="125px" height="125px" viewBox="0 0 125 125" version="1.1" xmlns="http://www.w3.org/2000/svg" xmlns:xlink="http://www.w3.org/1999/xlink">
    <title>编组</title>
    <g id="页面-1" stroke="none" stroke-width="1" fill="none" fill-rule="evenodd">
        <g id="编组" transform="translate(1.000000, 1.000000)">
            <circle id="椭圆形" stroke="#05050E" fill-opacity="0.1" fill="#FFFFFF" fill-rule="nonzero" opacity="0.3" cx="61.2510121" cy="61.2510121" r="61.2510121"></circle>
            <path d="M82.8821806,50.6402453 C82.8821806,50.1083077 82.8724202,49.5824453 82.8499117,49.060268 C85.0282567,47.3661547 86.9182737,45.2454753 88.4130972,42.8187401 C86.3830494,43.7721644 84.2229304,44.3889571 82.0106235,44.6470081 C84.3131636,43.1681198 86.0789854,40.8029344 86.9133935,37.9645725 C84.7574575,39.3292251 82.3727514,40.3048591 79.8371587,40.8131927 C77.8055174,38.4004008 74.9063028,36.8636478 71.7012316,36.8064802 C65.5457538,36.7003117 60.5558381,42.1294421 60.5558381,48.9312923 C60.5558381,49.8981619 60.6527441,50.8357506 60.8450623,51.74117 C51.5757425,51.1186008 43.361932,46.0827717 37.8675668,38.4912316 C36.908864,40.3100381 36.3588,42.4356972 36.3588,44.7136372 C36.3588,49.0222227 38.3265012,52.8515563 41.3162478,55.1112704 C39.4859879,55.0248219 37.7714575,54.4462737 36.2675709,53.49763 L36.2675709,53.6558866 C36.2675709,59.6776081 40.1106486,64.7229984 45.2099198,65.9001134 C44.2751198,66.177685 43.2891279,66.322098 42.2750502,66.3168194 C41.5704146,66.3130348 40.8681692,66.2327611 40.1794688,66.0772931 C41.5964089,71.0120332 45.7144688,74.6172777 50.5898502,74.7373895 C46.7741611,78.0394664 41.9676,80.0119482 36.7491134,79.9981045 C35.8492713,79.9981045 34.9601854,79.9351603 34.0885287,79.8209247 C39.0228704,83.353664 44.8801603,85.411201 51.1766648,85.411201 C71.6731457,85.4162794 82.8821806,66.7958721 82.8821806,50.6402453 Z" id="路径" fill="#05050E" fill-rule="nonzero"></path>
            <line x1="109.05668" y1="123" x2="122.721134" y2="109.05668" id="路径" stroke="#05050E" stroke-width="2"></line>
            <polyline id="路径" stroke="#05050E" stroke-width="2" points="109.05668 109.05668 123 109.05668 123 123"></polyline>
        </g>
    </g>
</svg>