<svg width="88" height="88" viewBox="0 0 88 88" fill="none" xmlns="http://www.w3.org/2000/svg">
<path d="M22 43.9999C9.82667 43.9999 0 53.8265 0 65.9999C0 78.1732 9.82667 87.9999 22 87.9999C34.1733 87.9999 44 78.1732 44 65.9999H22V43.9999Z" fill="#05050E"/>
<path d="M66 43.9999V65.9999H44C44 78.1732 53.8267 87.9999 66 87.9999C78.1733 87.9999 88 78.1732 88 65.9999C88 53.8754 78.1733 43.9999 66 43.9999Z" fill="#05050E"/>
<path d="M66 43.9999C53.8267 43.9999 44 34.1733 44 21.9999H22V43.9999C34.1733 43.9999 44 53.8266 44 65.9999C44 53.8755 53.8267 43.9999 66 43.9999Z" fill="#05050E"/>
<path d="M66 0C53.8267 0 44 9.82667 44 22H66V44C78.1733 44 88 34.1733 88 22C88 9.87556 78.1733 0 66 0Z" fill="#05050E"/>
</svg>
