<svg width="1132" height="48" viewBox="0 0 1132 48" fill="none" xmlns="http://www.w3.org/2000/svg">
    <rect y="24" width="1132" height="1" fill="#05050E" />
    <path d="M802.707 16H784.227L775 0H793.48L802.707 16Z" fill="black" />
    <path d="M802.707 16L793.48 32H775L784.227 16H802.707Z" fill="black" />
    <path d="M793.48 32H811.96L821.187 16H802.707L793.48 32Z" fill="black" />
    <path d="M793.48 32L802.707 48H821.187L811.96 32H793.48Z" fill="black" />
    <path d="M571.707 16H553.227L544 0H562.48L571.707 16Z" fill="black" />
    <path d="M571.707 16L562.48 32H544L553.227 16H571.707Z" fill="black" />
    <path d="M562.479 32H580.96L590.186 16H571.706L562.479 32Z" fill="black" />
    <path d="M562.479 32L571.706 48H590.186L580.96 32H562.479Z" fill="black" />
    <path d="M109.707 16H91.2267L82 0H100.48L109.707 16Z" fill="black" />
    <path d="M109.707 16L100.48 32H82L91.2267 16H109.707Z" fill="black" />
    <path d="M100.479 32H118.96L128.186 16H109.706L100.479 32Z" fill="black" />
    <path d="M100.479 32L109.706 48H128.186L118.96 32H100.479Z" fill="black" />
    <path d="M340.707 16H322.227L313 0H331.48L340.707 16Z" fill="black" />
    <path d="M340.707 16L331.48 32H313L322.227 16H340.707Z" fill="black" />
    <path d="M331.479 32H349.96L359.186 16H340.706L331.479 32Z" fill="black" />
    <path d="M331.479 32L340.706 48H359.186L349.96 32H331.479Z" fill="black" />
    <path d="M1033.71 16H1015.23L1006 0H1024.48L1033.71 16Z" fill="black" />
    <path d="M1033.71 16L1024.48 32H1006L1015.23 16H1033.71Z" fill="black" />
    <path d="M1024.48 32H1042.96L1052.19 16H1033.71L1024.48 32Z" fill="black" />
    <path d="M1024.48 32L1033.71 48H1052.19L1042.96 32H1024.48Z" fill="black" />
</svg>