<svg width="221" height="46" viewBox="0 0 221 46" fill="none" xmlns="http://www.w3.org/2000/svg">
    <path fill-rule="evenodd" clip-rule="evenodd"
        d="M67.892 14.8203H54.9321V19.4203H61.9817C61.8553 19.915 61.7913 20.4237 61.791 20.9345L61.7548 32.598V35.2245H66.3324V32.6095L66.3687 20.9492C66.3699 20.5433 66.5311 20.1544 66.8172 19.8678C67.1032 19.5812 67.4907 19.4203 67.8946 19.4203H73.2428V14.8203H67.892ZM76.3118 29.0675V20.9536C76.3136 19.3276 76.9573 17.7686 78.1015 16.6188C79.2458 15.469 80.7972 14.8222 82.4153 14.8203H94.6225V19.4203H82.4153C82.0107 19.4203 81.6225 19.5819 81.3364 19.8694C81.0502 20.157 80.8895 20.547 80.8895 20.9536V22.7425H94.6225V27.3425H80.8895V29.0675C80.8895 29.4742 81.0502 29.8642 81.3364 30.1518C81.6225 30.4393 82.0107 30.6009 82.4153 30.6009H94.6225V35.2009H82.4153C80.7972 35.199 79.2458 34.5522 78.1015 33.4024C76.9573 32.2526 76.3136 30.6936 76.3118 29.0675ZM102.252 14.8203V29.0675C102.252 29.4742 102.413 29.8642 102.699 30.1518C102.985 30.4393 103.373 30.6009 103.778 30.6009H112.933V35.2009H103.778C102.16 35.199 100.608 34.5522 99.464 33.4024C98.3198 32.2526 97.6761 30.6936 97.6743 29.0675V14.8203H102.252ZM120.563 20.9536C120.563 20.547 120.723 20.157 121.01 19.8694C121.296 19.5819 121.684 19.4203 122.089 19.4203H134.296V14.8203H122.089C120.47 14.8222 118.919 15.469 117.775 16.6188C116.63 17.7686 115.987 19.3276 115.985 20.9536V29.0675C115.987 30.6936 116.63 32.2526 117.775 33.4024C118.919 34.5522 120.47 35.199 122.089 35.2009H134.296V30.6009H122.089C121.684 30.6009 121.296 30.4393 121.01 30.1518C120.723 29.8642 120.563 29.4742 120.563 29.0675V27.3425L134.291 27.3726L134.301 22.7726L120.563 22.7425V20.9536ZM137.347 14.8203H147.821C152.144 14.8203 155.661 18.1304 155.661 22.1995C155.661 26.2686 152.144 29.5786 147.821 29.5786H143.451C143.046 29.5786 142.658 29.7402 142.372 30.0277C142.086 30.3153 141.925 30.7053 141.925 31.112V35.2648H137.347V14.8203ZM143.454 24.9786H147.821C149.617 24.9786 151.083 23.7322 151.083 22.1995C151.083 20.6668 149.619 19.4203 147.821 19.4203H141.928V25.1703C142.426 25.0417 142.939 24.9773 143.454 24.9786ZM199.695 22.0794C199.695 18.0786 196.401 14.8203 192.352 14.8203H181.344V35.2648H185.922V19.4203H192.352C193.878 19.4203 195.118 20.6131 195.118 22.0794C195.118 23.5456 193.881 24.7346 192.36 24.7384L186.6 24.6931L188.961 29.2899C189.885 31.0898 191.285 32.5994 193.007 33.6532C194.728 34.7071 196.705 35.2646 198.721 35.2648H199.645V30.6648H198.721C197.148 30.668 195.629 30.0876 194.456 29.035C197.483 28.1386 199.695 25.362 199.695 22.0794ZM202.689 14.8203H216.821H221V19.4203H215.652C215.248 19.4203 214.86 19.5812 214.574 19.8678C214.288 20.1544 214.127 20.5433 214.126 20.9492L214.09 32.6095V35.2245H209.512V32.598L209.548 20.9345C209.548 20.4237 209.613 19.915 209.739 19.4203H202.689V14.8203ZM168.213 14.8203H168.789C174.029 14.8203 178.292 19.0766 178.292 24.3078V25.7134C178.292 30.9446 174.029 35.2009 168.789 35.2009H168.213C162.97 35.2009 158.71 30.9446 158.71 25.7134V24.3078C158.71 19.0766 162.973 14.8203 168.213 14.8203ZM168.789 30.6009C171.489 30.6009 173.685 28.4082 173.685 25.7134V24.3078C173.685 21.613 171.489 19.4203 168.789 19.4203H168.213C165.514 19.4203 163.318 21.613 163.318 24.3078V25.7134C163.318 28.4082 165.514 30.6009 168.213 30.6009H168.789Z"
        fill="#111621" />
    <path fill-rule="evenodd" clip-rule="evenodd"
        d="M42.5646 18.5322C40.4541 17.3077 36.847 19.3589 33.4184 23.36C34.8042 22.2769 36.0913 21.8587 36.9579 22.3616C38.7094 23.3777 38.08 27.7686 35.5518 32.169C33.0236 36.5693 29.5541 39.3126 27.8026 38.2964C26.9359 37.7936 26.6527 36.4644 26.8933 34.7169C25.1593 39.7013 25.1952 43.8658 27.3056 45.0903C30.225 46.784 36.0073 42.2118 40.2209 34.8779C44.4346 27.544 45.4839 20.2258 42.5646 18.5322Z"
        fill="url(#paint0_linear_807_15550)" />
    <path fill-rule="evenodd" clip-rule="evenodd"
        d="M10.6773 35.4446C7.75794 33.7509 8.80719 26.4328 13.0209 19.0989C17.2346 11.7649 23.0169 7.19277 25.9362 8.88647C27.387 9.72821 27.8573 11.9597 27.4461 14.8911C29.4556 8.24004 29.1437 2.77992 26.1759 1.05812C21.7969 -1.48243 13.2944 5.07844 7.18443 15.7127C1.0745 26.3471 -0.328515 37.0268 4.05048 39.5674C7.01826 41.2892 11.8799 38.8306 16.6072 33.7562C14.2864 35.5798 12.1281 36.2863 10.6773 35.4446Z"
        fill="url(#paint1_linear_807_15550)" />
    <path
        d="M31.4544 27.1384L23.5256 22.5384C20.6063 20.8448 19.6061 17.0937 21.2916 14.1602L29.2203 18.7602C32.1397 20.4539 33.1399 24.2049 31.4544 27.1384Z"
        fill="#00C6D2" />
    <path
        d="M20.8279 33.3671L12.8992 28.7671C14.5846 25.8335 18.3175 24.8285 21.2368 26.5222L29.1656 31.1222C27.4801 34.0557 23.7473 35.0608 20.8279 33.3671Z"
        fill="#00C6D2" />
    <defs>
        <linearGradient id="paint0_linear_807_15550" x1="27.2435" y1="45.2357" x2="41.5822" y2="19.4786"
            gradientUnits="userSpaceOnUse">
            <stop stop-color="#009EFD" />
            <stop offset="1" stop-color="#12EFCF" />
        </linearGradient>
        <linearGradient id="paint1_linear_807_15550" x1="29.0555" y1="1.76089" x2="6.67018" y2="41.3108"
            gradientUnits="userSpaceOnUse">
            <stop stop-color="#009EFD" />
            <stop offset="1" stop-color="#12EFCF" />
        </linearGradient>
    </defs>
</svg>