<svg width="64" height="64" viewBox="0 0 64 64" fill="none" xmlns="http://www.w3.org/2000/svg">
    <path fill-rule="evenodd" clip-rule="evenodd"
        d="M32 16C32 7.14666 39.1467 0 48 0C56.8533 0 64 7.14669 64 16.0001C64 24.8534 56.8533 32.0001 48 32.0001V48.0001H32C32 39.1467 24.8533 32.0001 16 32.0001V48L32 48.0001C32 56.8534 24.8533 64 16 64C7.14667 64 0 56.8533 0 48C0 39.1467 7.14667 32 16 32V16H32ZM48 32.0001V16.0001H32C32 24.8534 39.1467 32.0001 48 32.0001Z"
        fill="white" />
</svg>