<svg width="25" height="24" viewBox="0 0 25 24" fill="none" xmlns="http://www.w3.org/2000/svg">
<path d="M9.74613 1.82128C10.1205 3.01528 10.7901 6.12688 8.36373 7.94368C8.21013 8.05888 7.99533 8.02648 7.86933 7.88128C7.07973 6.97168 5.71173 6.56728 4.97373 6.40768C4.73013 6.35488 4.50933 6.56008 4.54173 6.80608C4.66653 7.78048 4.81893 9.97528 3.90333 11.2221C2.70213 12.8565 0.658526 23.2509 13.4385 22.4217C25.5885 21.6345 23.4657 10.3209 20.2581 6.33088C20.0721 6.09928 19.6989 6.18088 19.6281 6.46888C19.4025 7.38928 18.9357 8.32528 18.3549 8.90968C18.1377 9.12808 17.7681 8.97688 17.7465 8.67088C17.5425 5.83168 15.6381 1.67128 10.1121 1.35208C9.85773 1.33888 9.67053 1.58128 9.74613 1.82128Z" fill="url(#paint0_linear_2239_7443)"/>
<defs>
<linearGradient id="paint0_linear_2239_7443" x1="12.8751" y1="1.35156" x2="13" y2="22" gradientUnits="userSpaceOnUse">
<stop stop-color="#39E1BA"/>
<stop offset="1" stop-color="#4ED7B6" stop-opacity="0"/>
</linearGradient>
</defs>
</svg>
