<svg width="25" height="24" viewBox="0 0 25 24" fill="none" xmlns="http://www.w3.org/2000/svg">
    <path
        d="M9.74613 1.82128C10.1205 3.01528 10.7901 6.12688 8.36373 7.94368C8.21013 8.05888 7.99533 8.02648 7.86933 7.88128C7.07973 6.97168 5.71173 6.56728 4.97373 6.40768C4.73013 6.35488 4.50933 6.56008 4.54173 6.80608C4.66653 7.78048 4.81893 9.97528 3.90333 11.2221C2.70213 12.8565 0.658526 23.2509 13.4385 22.4217C25.5885 21.6345 23.4657 10.3209 20.2581 6.33088C20.0721 6.09928 19.6989 6.18088 19.6281 6.46888C19.4025 7.38928 18.9357 8.32528 18.3549 8.90968C18.1377 9.12808 17.7681 8.97688 17.7465 8.67088C17.5425 5.83168 15.6381 1.67128 10.1121 1.35208C9.85773 1.33888 9.67053 1.58128 9.74613 1.82128Z"
        fill="#12C57A" />
    <path
        d="M21.9626 9.51759C21.5114 8.25639 20.9066 7.14759 20.2562 6.33879C20.0702 6.10719 19.697 6.18879 19.6262 6.47679C19.4006 7.39719 18.9338 8.33319 18.353 8.91759C18.1358 9.13599 17.7662 8.98479 17.7446 8.67879C17.5406 5.83959 15.6362 1.67919 10.1102 1.35999C9.8594 1.34559 9.6722 1.58799 9.7466 1.82799C10.121 3.02199 10.7906 6.13359 8.3642 7.95039C8.2106 8.06559 7.9958 8.03319 7.8698 7.88799C7.079 6.97839 5.711 6.57399 4.973 6.41439C4.7294 6.36159 4.5086 6.56679 4.541 6.81279C4.6658 7.78719 4.8182 9.98199 3.9026 11.2288C3.1058 12.3124 1.9418 17.2432 4.9682 20.2048C5.6666 20.3524 6.3842 20.4532 7.1186 20.4964C14.183 20.9164 20.3594 16.1656 21.9626 9.51759Z"
        fill="#38F0A3" />
    <path
        d="M17.7359 8.60079C17.5043 5.76399 15.5855 1.67559 10.1087 1.35999C9.85793 1.34559 9.67073 1.58799 9.74513 1.82799C10.1195 3.02199 10.7891 6.13359 8.36273 7.95039C8.20913 8.06559 7.99433 8.03319 7.86833 7.88799C7.07873 6.97839 5.71073 6.57399 4.97273 6.41439C4.72913 6.36159 4.50833 6.56679 4.54073 6.81279C4.66553 7.78719 4.81793 9.98199 3.90233 11.2288C3.36833 11.9548 2.66993 14.41 3.17753 16.8412C3.39353 16.864 3.61073 16.8832 3.83033 16.8964C9.89993 17.2564 15.3155 13.7992 17.7359 8.60079Z"
        fill="#7BF9DA" />
    <path
        d="M3.27686 12.79C8.68165 12.0136 13.1649 8.15439 14.7597 2.96079C13.6185 2.08959 12.1005 1.47519 10.1085 1.35999C9.85766 1.34559 9.67045 1.58799 9.74485 1.82799C10.1193 3.02199 10.7889 6.13359 8.36245 7.95039C8.20886 8.06559 7.99406 8.03319 7.86806 7.88799C7.07846 6.97839 5.71046 6.57399 4.97246 6.41439C4.72886 6.36159 4.50806 6.56679 4.54046 6.81279C4.66526 7.78719 4.81766 9.98199 3.90206 11.2288C3.69086 11.5156 3.45446 12.0724 3.27686 12.79Z"
        fill="#E0FFF8" />
    <path
        d="M4.50766 11.6662L4.50783 11.666C5.08998 10.8733 5.29621 9.8436 5.36066 8.96692C5.40608 8.34901 5.38443 7.7542 5.34503 7.27611C6.01918 7.47529 6.82279 7.81979 7.30295 8.37293C7.66261 8.78729 8.31629 8.91636 8.81325 8.54403C10.2437 7.47296 10.7521 6.01413 10.853 4.70665C10.9286 3.72777 10.7796 2.81166 10.6156 2.14703C12.8684 2.39981 14.3687 3.36703 15.3482 4.54581C16.4222 5.83821 16.9054 7.43011 16.9985 8.72463C17.0621 9.61581 18.1761 10.1531 18.8867 9.43855L18.8869 9.43837C19.4115 8.91046 19.8346 8.17817 20.1186 7.41787C21.395 9.37849 22.3595 12.5842 21.8682 15.4506C21.5992 17.0203 20.8992 18.4628 19.5968 19.5637C18.2902 20.6681 16.3119 21.4839 13.39 21.6732L13.39 21.6733C10.2887 21.8745 8.17611 21.3884 6.75298 20.5961C5.34377 19.8116 4.55092 18.6943 4.13655 17.4999C3.71673 16.2898 3.68282 14.9874 3.83252 13.8785C3.98634 12.739 4.31553 11.9277 4.50766 11.6662ZM4.81485 7.14066L4.8152 7.14073L4.81485 7.14066Z"
        fill="url(#paint0_linear_860_4346)" stroke="url(#paint1_linear_860_4346)" stroke-width="1.5" />
    <path
        d="M8.95356 17.4566C8.10349 16.5649 7.32169 15.2053 7.22884 13.1891C7.19135 12.3753 6.15279 11.9643 5.91072 12.7422C4.96336 15.7868 6.78871 17.8306 8.59546 18.7092C9.66878 19.2312 9.77713 18.3204 8.95356 17.4566Z"
        fill="#6E24F0" />
    <defs>
        <linearGradient id="paint0_linear_860_4346" x1="12.8751" y1="1.35156" x2="12.8751" y2="22.4687"
            gradientUnits="userSpaceOnUse">
            <stop stop-color="#56F4B2" />
            <stop offset="1" stop-color="#56F4B2" stop-opacity="0" />
        </linearGradient>
        <linearGradient id="paint1_linear_860_4346" x1="13.8518" y1="22.9961" x2="10.8518" y2="-5.50391"
            gradientUnits="userSpaceOnUse">
            <stop stop-color="#6E24F0" />
            <stop offset="0.29234" stop-color="#7D64E9" stop-opacity="0.70766" />
            <stop offset="1" stop-color="#A2FFD9" stop-opacity="0" />
        </linearGradient>
    </defs>
</svg>