<svg width="1920" height="600" viewBox="0 0 1920 600" fill="none" xmlns="http://www.w3.org/2000/svg">
<g clip-path="url(#clip0_533_14907)">
<g filter="url(#filter0_f_533_14907)">
<ellipse cx="655.08" cy="-94.3725" rx="377.83" ry="237.173" transform="rotate(-1.29156 655.08 -94.3725)" fill="#FFD099"/>
</g>
<g opacity="0.4" filter="url(#filter1_f_533_14907)">
<ellipse cx="338.461" cy="-201.84" rx="455.75" ry="387.617" transform="rotate(-11.4171 338.461 -201.84)" fill="#59C3AA"/>
</g>
<g opacity="0.4" filter="url(#filter2_f_533_14907)">
<path d="M2299.69 -172.079C2330.61 -18.9594 2157.74 124.308 1813.94 205.22C1470.14 286.132 1123.77 21.1515 1092.85 -131.968C1061.93 -285.087 1492.03 -297.529 1759.47 -351.537C2026.9 -405.544 2268.77 -325.198 2299.69 -172.079Z" fill="#59C3AA"/>
</g>
<g opacity="0.4" filter="url(#filter3_f_533_14907)">
<ellipse cx="-52.322" cy="211.806" rx="222.843" ry="314.017" transform="rotate(33.3087 -52.322 211.806)" fill="#41BBFF"/>
</g>
</g>
<defs>
<filter id="filter0_f_533_14907" x="-22.6927" y="-631.641" width="1355.55" height="1074.54" filterUnits="userSpaceOnUse" color-interpolation-filters="sRGB">
<feFlood flood-opacity="0" result="BackgroundImageFix"/>
<feBlend mode="normal" in="SourceGraphic" in2="BackgroundImageFix" result="shape"/>
<feGaussianBlur stdDeviation="150" result="effect1_foregroundBlur_533_14907"/>
</filter>
<filter id="filter1_f_533_14907" x="-314.886" y="-792.438" width="1306.69" height="1181.2" filterUnits="userSpaceOnUse" color-interpolation-filters="sRGB">
<feFlood flood-opacity="0" result="BackgroundImageFix"/>
<feBlend mode="normal" in="SourceGraphic" in2="BackgroundImageFix" result="shape"/>
<feGaussianBlur stdDeviation="100" result="effect1_foregroundBlur_533_14907"/>
</filter>
<filter id="filter2_f_533_14907" x="891.27" y="-568.359" width="1611.95" height="988.609" filterUnits="userSpaceOnUse" color-interpolation-filters="sRGB">
<feFlood flood-opacity="0" result="BackgroundImageFix"/>
<feBlend mode="normal" in="SourceGraphic" in2="BackgroundImageFix" result="shape"/>
<feGaussianBlur stdDeviation="100" result="effect1_foregroundBlur_533_14907"/>
</filter>
<filter id="filter3_f_533_14907" x="-506.134" y="-277.824" width="907.624" height="979.262" filterUnits="userSpaceOnUse" color-interpolation-filters="sRGB">
<feFlood flood-opacity="0" result="BackgroundImageFix"/>
<feBlend mode="normal" in="SourceGraphic" in2="BackgroundImageFix" result="shape"/>
<feGaussianBlur stdDeviation="100" result="effect1_foregroundBlur_533_14907"/>
</filter>
<clipPath id="clip0_533_14907">
<rect width="1920" height="600" fill="white"/>
</clipPath>
</defs>
</svg>
