<svg width="249" height="219" viewBox="0 0 249 219" fill="none" xmlns="http://www.w3.org/2000/svg">
    <path fill-rule="evenodd" clip-rule="evenodd"
        d="M64.3063 194.635C77.7296 208.059 124.498 183.054 168.767 138.785C213.035 94.5166 238.04 47.7481 224.617 34.3247C211.194 20.9013 164.425 45.9063 120.156 90.1749C75.8879 134.443 50.8829 181.212 64.3063 194.635ZM161.149 129.864C125.088 165.925 89.0726 188.375 80.7054 180.007C72.3382 171.64 94.7879 135.624 130.848 99.5639C166.909 63.5034 202.925 41.0537 211.292 49.4209C219.659 57.7881 197.209 93.8039 161.149 129.864Z"
        fill="url(#paint0_linear_0_1)" />
    <path fill-rule="evenodd" clip-rule="evenodd"
        d="M224.632 34.306C211.208 20.8826 164.44 45.8876 120.171 90.1562C75.9026 134.425 50.8977 181.193 64.3211 194.617C77.7444 208.04 124.513 183.035 168.782 138.767C213.05 94.498 238.055 47.7294 224.632 34.306ZM120.173 90.1594C158.73 51.6029 198.341 28.7011 208.646 39.0068C218.952 49.3125 196.05 88.9231 157.494 127.48C118.937 166.036 79.3265 188.938 69.0209 178.632C58.7152 168.327 81.617 128.716 120.173 90.1594Z"
        fill="url(#paint1_linear_0_1)" />
    <path
        d="M20.6421 63.7067L2 46.0723V1.73438H178.848L195.475 17.3534V63.7067H135.518V167.498H81.1029L62.9647 150.367V63.7067H20.6421Z"
        stroke="white" stroke-width="3" />
    <path d="M176.328 46.0742L195.474 64.2125" stroke="white" stroke-width="3" />
    <path d="M115.869 46.0742L136.023 65.2201" stroke="white" stroke-width="3" />
    <path d="M115.869 148.855L136.023 168.001" stroke="white" stroke-width="3" />
    <path d="M2 46.0723V1.73438H177.336V46.0723H116.372V149.863H62.9646V46.0723H2Z" stroke="white" stroke-width="3" />
    <defs>
        <linearGradient id="paint0_linear_0_1" x1="224.617" y1="34.3247" x2="64.3062" y2="194.635"
            gradientUnits="userSpaceOnUse">
            <stop stop-color="#006B81" />
            <stop offset="1" stop-color="#019E62" />
        </linearGradient>
        <linearGradient id="paint1_linear_0_1" x1="64.3211" y1="194.617" x2="224.632" y2="34.306"
            gradientUnits="userSpaceOnUse">
            <stop stop-color="#00D1FF" />
            <stop offset="1" stop-color="#45EBA5" />
        </linearGradient>
    </defs>
</svg>