<svg width="335" height="301" viewBox="0 0 335 301" fill="none" xmlns="http://www.w3.org/2000/svg">
    <path fill-rule="evenodd" clip-rule="evenodd"
        d="M150.306 276.635C163.729 290.059 210.498 265.054 254.767 220.785C299.035 176.517 324.04 129.748 310.617 116.325C297.193 102.901 250.425 127.906 206.156 172.175C161.888 216.443 136.883 263.212 150.306 276.635ZM247.149 211.864C211.088 247.925 175.072 270.375 166.705 262.007C158.338 253.64 180.788 217.624 216.848 181.564C252.909 145.503 288.924 123.054 297.292 131.421C305.659 139.788 283.209 175.804 247.149 211.864Z"
        fill="url(#paint0_linear_0_1)" />
    <path fill-rule="evenodd" clip-rule="evenodd"
        d="M310.631 116.306C297.208 102.883 250.44 127.888 206.171 172.156C161.902 216.425 136.897 263.193 150.321 276.617C163.744 290.04 210.513 265.035 254.781 220.767C299.05 176.498 324.055 129.729 310.631 116.306ZM206.173 172.159C244.73 133.603 284.34 110.701 294.646 121.007C304.952 131.312 282.05 170.923 243.493 209.48C204.937 248.036 165.326 270.938 155.021 260.632C144.715 250.327 167.617 210.716 206.173 172.159Z"
        fill="url(#paint1_linear_0_1)" />
    <mask id="mask0_0_1" style="mask-type:alpha" maskUnits="userSpaceOnUse" x="0" y="0" width="302" height="259">
        <path
            d="M296.5 151C307.5 121.5 296.5 56 296.5 56L156.5 0L0 72L99.5 249C99.5 249 167.5 275 209 240C250.5 205 285.5 180.5 296.5 151Z"
            fill="#C4C4C4" />
    </mask>
    <g mask="url(#mask0_0_1)">
        <path
            d="M106.642 145.707L88 128.072V83.7344H264.848L281.475 99.3534V145.707H221.518V249.498H167.103L148.965 232.367V145.707H106.642Z"
            stroke="white" stroke-width="3" />
        <path d="M262.328 128.074L281.474 146.212" stroke="white" stroke-width="3" />
        <path d="M201.869 128.074L222.023 147.22" stroke="white" stroke-width="3" />
        <path d="M201.869 230.855L222.023 250.001" stroke="white" stroke-width="3" />
        <path d="M88 128.072V83.7344H263.336V128.072H202.372V231.863H148.965V128.072H88Z" stroke="white"
            stroke-width="3" />
    </g>
    <defs>
        <linearGradient id="paint0_linear_0_1" x1="310.617" y1="116.325" x2="150.306" y2="276.635"
            gradientUnits="userSpaceOnUse">
            <stop stop-color="#006B81" />
            <stop offset="1" stop-color="#019E62" />
        </linearGradient>
        <linearGradient id="paint1_linear_0_1" x1="150.321" y1="276.617" x2="310.631" y2="116.306"
            gradientUnits="userSpaceOnUse">
            <stop stop-color="#00D1FF" />
            <stop offset="1" stop-color="#45EBA5" />
        </linearGradient>
    </defs>
</svg>