<svg width="64" height="64" viewBox="0 0 64 64" fill="none" xmlns="http://www.w3.org/2000/svg">
    <path fill-rule="evenodd" clip-rule="evenodd"
        d="M32 16C32 7.14667 39.1467 0 48.0001 0C56.8535 0 64.0002 7.18222 64.0002 16C64.0002 24.8533 56.8535 32 48.0001 32V31.9999V16H32.0001C32.0001 24.8533 39.1468 31.9999 48.0001 31.9999C39.1468 31.9999 32.0001 39.1821 32.0001 47.9998C32.0001 39.1465 24.8534 31.9999 16 31.9999V16H32ZM48.0001 32V48H32.0001H32H16.0001V32C7.14669 32 0 39.1467 0 48C0 56.8533 7.14669 64 16.0001 64C24.8386 64 31.9761 56.8773 32.0001 48.0446C32.024 56.8773 39.1616 64 48.0001 64C56.8535 64 64.0002 56.8533 64.0002 48C64.0002 39.1822 56.8535 32 48.0001 32Z"
        fill="white" />
</svg>