<svg width="24" height="24" viewBox="0 0 24 24" fill="none" xmlns="http://www.w3.org/2000/svg">
    <path
        d="M19.5892 4.74759C19.5832 4.73526 19.5731 4.72559 19.5609 4.72032C18.1463 4.03884 16.6535 3.55289 15.1198 3.27463C15.1059 3.27191 15.0915 3.27387 15.0787 3.28024C15.0659 3.2866 15.0553 3.29705 15.0485 3.31008C14.8452 3.69747 14.6607 4.09538 14.4956 4.5023C12.8424 4.23879 11.1608 4.23879 9.50762 4.5023C9.34145 4.09435 9.15396 3.69634 8.94602 3.31008C8.93889 3.29733 8.92826 3.28713 8.91553 3.2808C8.90279 3.27448 8.88854 3.27233 8.87463 3.27463C7.34081 3.5523 5.84791 4.03829 4.4335 4.72036C4.42139 4.72575 4.41117 4.73495 4.40426 4.7467C1.57571 9.18196 0.80087 13.5082 1.18098 17.7808C1.18205 17.7913 1.18512 17.8014 1.18999 17.8106C1.19487 17.8198 1.20146 17.8279 1.20937 17.8344C2.8564 19.1149 4.69863 20.0923 6.65744 20.7249C6.67123 20.7292 6.68597 20.729 6.69965 20.7243C6.71334 20.7196 6.72532 20.7106 6.73399 20.6985C7.1547 20.0975 7.52748 19.461 7.84854 18.7956C7.85295 18.7865 7.85547 18.7764 7.85593 18.7662C7.85639 18.756 7.85478 18.7458 7.85121 18.7362C7.84763 18.7267 7.84218 18.7181 7.8352 18.7109C7.82823 18.7038 7.81988 18.6983 7.81073 18.6948C7.22288 18.4586 6.65378 18.1739 6.10876 17.8433C6.09886 17.8372 6.09054 17.8286 6.08454 17.8184C6.07855 17.8081 6.07506 17.7964 6.07438 17.7844C6.0737 17.7723 6.07586 17.7603 6.08065 17.7493C6.08545 17.7384 6.09275 17.7288 6.10189 17.7215C6.21658 17.6316 6.32927 17.5389 6.43989 17.4435C6.44959 17.4351 6.46133 17.4297 6.47379 17.4279C6.48624 17.4262 6.49892 17.4281 6.51039 17.4335C10.0811 19.1446 13.9468 19.1446 17.4752 17.4335C17.4867 17.4278 17.4995 17.4256 17.5121 17.4272C17.5248 17.4288 17.5367 17.4341 17.5466 17.4426C17.6573 17.5385 17.7703 17.6315 17.8854 17.7215C17.8946 17.7288 17.902 17.7382 17.9068 17.7492C17.9117 17.7601 17.914 17.7721 17.9134 17.7841C17.9128 17.7962 17.9094 17.8079 17.9034 17.8182C17.8975 17.8285 17.8893 17.8372 17.8794 17.8433C17.3356 18.1767 16.766 18.4612 16.1766 18.6939C16.1675 18.6975 16.1592 18.7032 16.1522 18.7104C16.1453 18.7177 16.1399 18.7264 16.1364 18.736C16.1329 18.7456 16.1314 18.7559 16.1319 18.7661C16.1324 18.7764 16.135 18.7864 16.1395 18.7956C16.466 19.4573 16.8382 20.093 17.2532 20.6975C17.2616 20.7099 17.2736 20.7192 17.2873 20.7241C17.301 20.729 17.3159 20.7292 17.3298 20.7247C19.2921 20.0943 21.1375 19.1168 22.7866 17.8344C22.7947 17.8282 22.8013 17.8203 22.8062 17.8113C22.8111 17.8022 22.8141 17.7921 22.815 17.7817C23.2701 12.8421 22.0532 8.55133 19.5892 4.74759ZM8.38179 15.1792C7.30676 15.1792 6.42096 14.1434 6.42096 12.8712C6.42096 11.599 7.28958 10.5631 8.38179 10.5631C9.48253 10.5631 10.3598 11.608 10.3426 12.8711C10.3426 14.1434 9.47392 15.1792 8.38179 15.1792ZM15.6315 15.1792C14.5565 15.1792 13.6707 14.1434 13.6707 12.8712C13.6707 11.599 14.5394 10.5631 15.6315 10.5631C16.7324 10.5631 17.6095 11.608 17.5924 12.8711C17.5924 14.1434 16.7324 15.1792 15.6315 15.1792Z"
        fill="white" />
</svg>