<?xml version="1.0" encoding="UTF-8"?>
<svg width="125px" height="125px" viewBox="0 0 125 125" version="1.1" xmlns="http://www.w3.org/2000/svg" xmlns:xlink="http://www.w3.org/1999/xlink">
    <title>编组</title>
    <g id="页面-1" stroke="none" stroke-width="1" fill="none" fill-rule="evenodd">
        <g id="编组" transform="translate(1.000000, 1.000000)">
            <circle id="椭圆形" stroke="#05050E" fill-opacity="0.1" fill="#FFFFFF" fill-rule="nonzero" opacity="0.3" cx="61.2510121" cy="61.2510121" r="61.2510121"></circle>
            <path d="M53.5036057,83.0679255 L54.3053466,70.9128364 L76.2960534,51.0278696 C77.269596,50.1369911 76.095668,49.7059433 74.8071061,50.4818891 L47.662251,67.6944194 L35.9223741,63.9588049 C33.402617,63.2404251 33.3739336,61.4875506 36.4950462,60.2231903 L82.2232591,42.5221457 C84.3135619,41.5738008 86.3179142,43.0393433 85.5161733,46.2577603 L77.7277336,83.0679255 C77.1837449,85.6828955 75.608847,86.3150259 73.4326931,85.108132 L61.5782818,76.3150761 L55.8801449,81.8610316 C55.2216219,82.5219449 54.6775336,83.0679255 53.5036057,83.0679255 Z" id="路径" fill="#05050E" fill-rule="nonzero"></path>
            <line x1="109.05668" y1="123" x2="122.721134" y2="109.05668" id="路径" stroke="#05050E" stroke-width="2"></line>
            <polyline id="路径" stroke="#05050E" stroke-width="2" points="109.05668 109.05668 123 109.05668 123 123"></polyline>
        </g>
    </g>
</svg>