<svg width="206" height="44" viewBox="0 0 206 44" fill="none" xmlns="http://www.w3.org/2000/svg">
<path fill-rule="evenodd" clip-rule="evenodd" d="M63.2839 14.0684H51.2036V18.3684H57.7748C57.6569 18.8308 57.5972 19.3063 57.597 19.7838L57.5632 30.6867V33.1418H61.8302V30.6974L61.8639 19.7975C61.865 19.4181 62.0154 19.0546 62.282 18.7867C62.5486 18.5188 62.9098 18.3684 63.2863 18.3684H68.2715V14.0684H63.2839ZM71.1322 27.3864V19.8017C71.1339 18.2817 71.7338 16.8244 72.8004 15.7495C73.867 14.6747 75.3131 14.0701 76.8215 14.0684H88.2001V18.3684H76.8215C76.4442 18.3684 76.0825 18.5194 75.8157 18.7882C75.549 19.057 75.3991 19.4215 75.3991 19.8017V21.4739H88.2001V25.7739H75.3991V27.3864C75.3991 27.7666 75.549 28.1311 75.8157 28.3999C76.0825 28.6687 76.4442 28.8197 76.8215 28.8197H88.2001V33.1197H76.8215C75.3131 33.118 73.867 32.5134 72.8004 31.4386C71.7338 30.3637 71.1339 28.9065 71.1322 27.3864ZM95.3117 14.0684V27.3864C95.3117 27.7666 95.4615 28.1311 95.7283 28.3999C95.995 28.6687 96.3568 28.8197 96.734 28.8197H105.268V33.1197H96.734C95.2256 33.118 93.7795 32.5134 92.713 31.4386C91.6464 30.3637 91.0464 28.9065 91.0447 27.3864V14.0684H95.3117ZM112.38 19.8017C112.38 19.4215 112.529 19.057 112.796 18.7882C113.063 18.5194 113.425 18.3684 113.802 18.3684H125.18V14.0684H113.802C112.294 14.0701 110.847 14.6747 109.781 15.7495C108.714 16.8244 108.114 18.2817 108.113 19.8017V27.3864C108.114 28.9065 108.714 30.3637 109.781 31.4386C110.847 32.5134 112.294 33.118 113.802 33.1197H125.18V28.8197H113.802C113.425 28.8197 113.063 28.6687 112.796 28.3999C112.529 28.1311 112.38 27.7666 112.38 27.3864V25.7739L125.176 25.802L125.185 21.502L112.38 21.4739V19.8017ZM128.025 14.0684H137.788C141.818 14.0684 145.095 17.1626 145.095 20.9663C145.095 24.77 141.818 27.8642 137.788 27.8642H133.714C133.337 27.8642 132.975 28.0152 132.709 28.284C132.442 28.5528 132.292 28.9174 132.292 29.2975V33.1795H128.025V14.0684ZM133.717 23.5642H137.788C139.462 23.5642 140.828 22.399 140.828 20.9663C140.828 19.5335 139.464 18.3684 137.788 18.3684H132.294V23.7434C132.759 23.6231 133.237 23.5629 133.717 23.5642ZM186.141 20.854C186.141 17.1142 183.071 14.0684 179.296 14.0684H169.035V33.1795H173.302V18.3684H179.296C180.719 18.3684 181.874 19.4834 181.874 20.854C181.874 22.2246 180.722 23.3361 179.303 23.3396L173.935 23.2972L176.135 27.5942C176.997 29.2768 178.302 30.6879 179.907 31.673C181.511 32.6582 183.354 33.1793 185.233 33.1795H186.094V28.8795H185.233C183.767 28.8825 182.351 28.34 181.257 27.356C184.079 26.5181 186.141 23.9225 186.141 20.854ZM188.932 14.0684H202.105H206V18.3684H201.015C200.638 18.3684 200.277 18.5188 200.01 18.7867C199.744 19.0546 199.593 19.4181 199.592 19.7975L199.559 30.6974V33.1418H195.292V30.6867L195.325 19.7838C195.326 19.3063 195.385 18.8308 195.503 18.3684H188.932V14.0684ZM156.796 14.0684H157.333C162.217 14.0684 166.191 18.0471 166.191 22.9371V24.251C166.191 29.1411 162.217 33.1197 157.333 33.1197H156.796C151.908 33.1197 147.938 29.1411 147.938 24.251V22.9371C147.938 18.0471 151.911 14.0684 156.796 14.0684ZM157.333 28.8197C159.849 28.8197 161.896 26.7701 161.896 24.251V22.9371C161.896 20.418 159.849 18.3684 157.333 18.3684H156.796C154.279 18.3684 152.233 20.418 152.233 22.9371V24.251C152.233 26.7701 154.279 28.8197 156.796 28.8197H157.333Z" fill="white"/>
<path fill-rule="evenodd" clip-rule="evenodd" d="M39.6754 17.3256C37.7082 16.181 34.346 18.0984 31.15 21.8385C32.4418 20.8261 33.6415 20.4352 34.4494 20.9052C36.082 21.8551 35.4952 25.9597 33.1386 30.073C30.782 34.1864 27.548 36.7507 25.9154 35.8009C25.1076 35.3308 24.8436 34.0884 25.0678 32.4548C23.4516 37.1141 23.4849 41.0071 25.4522 42.1516C28.1734 43.7349 33.5632 39.4609 37.4909 32.6053C41.4186 25.7497 42.3966 18.9088 39.6754 17.3256Z" fill="#020202"/>
<path fill-rule="evenodd" clip-rule="evenodd" d="M39.6754 17.3256C37.7082 16.181 34.346 18.0984 31.15 21.8385C32.4418 20.8261 33.6415 20.4352 34.4494 20.9052C36.082 21.8551 35.4952 25.9597 33.1386 30.073C30.782 34.1864 27.548 36.7507 25.9154 35.8009C25.1076 35.3308 24.8436 34.0884 25.0678 32.4548C23.4516 37.1141 23.4849 41.0071 25.4522 42.1516C28.1734 43.7349 33.5632 39.4609 37.4909 32.6053C41.4186 25.7497 42.3966 18.9088 39.6754 17.3256Z" fill="url(#paint0_linear_170_484)"/>
<path fill-rule="evenodd" clip-rule="evenodd" d="M9.95242 33.1331C7.23124 31.5499 8.20928 24.7091 12.137 17.8535C16.0647 10.9978 21.4545 6.72385 24.1757 8.30709C25.528 9.09393 25.9664 11.1799 25.5831 13.9201C27.4562 7.70282 27.1655 2.59879 24.3991 0.989278C20.3173 -1.38558 12.3919 4.7474 6.69665 14.6882C1.00143 24.6289 -0.306359 34.6122 3.77542 36.9871C6.54176 38.5966 11.0734 36.2983 15.4799 31.5549C13.3166 33.2596 11.3048 33.92 9.95242 33.1331Z" fill="#020202"/>
<path fill-rule="evenodd" clip-rule="evenodd" d="M9.95242 33.1331C7.23124 31.5499 8.20928 24.7091 12.137 17.8535C16.0647 10.9978 21.4545 6.72385 24.1757 8.30709C25.528 9.09393 25.9664 11.1799 25.5831 13.9201C27.4562 7.70282 27.1655 2.59879 24.3991 0.989278C20.3173 -1.38558 12.3919 4.7474 6.69665 14.6882C1.00143 24.6289 -0.306359 34.6122 3.77542 36.9871C6.54176 38.5966 11.0734 36.2983 15.4799 31.5549C13.3166 33.2596 11.3048 33.92 9.95242 33.1331Z" fill="url(#paint1_linear_170_484)"/>
<path d="M29.3193 25.3682L21.9286 21.0682C19.2075 19.485 18.2751 15.9786 19.8462 13.2363L27.2368 17.5363C29.958 19.1196 30.8903 22.626 29.3193 25.3682Z" fill="#00C6D2"/>
<path d="M19.4141 31.1907L12.0234 26.8907C13.5945 24.1484 17.074 23.2089 19.7952 24.7921L27.1858 29.0921C25.6147 31.8344 22.1352 32.7739 19.4141 31.1907Z" fill="#00C6D2"/>
<defs>
<linearGradient id="paint0_linear_170_484" x1="25.3943" y1="42.2876" x2="38.8179" y2="18.2428" gradientUnits="userSpaceOnUse">
<stop stop-color="#009EFD"/>
<stop offset="1" stop-color="#12EFCF"/>
</linearGradient>
<linearGradient id="paint1_linear_170_484" x1="27.0833" y1="1.64622" x2="6.12725" y2="38.5657" gradientUnits="userSpaceOnUse">
<stop stop-color="#009EFD"/>
<stop offset="1" stop-color="#12EFCF"/>
</linearGradient>
</defs>
</svg>
