<svg width="24" height="24" viewBox="0 0 24 24" fill="none" xmlns="http://www.w3.org/2000/svg">
    <path
        d="M8.72362 7.41817V20.0789C8.72362 20.2587 8.678 20.4116 8.58678 20.5377C8.49555 20.6639 8.36219 20.7269 8.18669 20.7269C8.06232 20.7269 7.94184 20.6981 7.82525 20.6405L2.72962 18.1254C2.57621 18.0532 2.44653 17.9328 2.34057 17.7639C2.23462 17.5951 2.18164 17.4278 2.18164 17.2622V4.95745C2.18164 4.8136 2.21825 4.6913 2.29148 4.59055C2.36471 4.48981 2.47066 4.43944 2.60935 4.43944C2.71162 4.43944 2.87239 4.49344 3.09166 4.60143L8.6911 7.36437C8.71319 7.38613 8.72423 7.40406 8.72423 7.41817H8.72362ZM9.425 8.50799L15.2766 17.8552L9.425 14.984V8.50799ZM21.818 8.70262V20.0789C21.818 20.2587 21.7669 20.4043 21.6646 20.516C21.5623 20.6276 21.4234 20.6834 21.2479 20.6834C21.0724 20.6834 20.9008 20.6367 20.7331 20.5432L15.9007 18.1683L21.818 8.70262ZM21.7849 7.40729C21.7849 7.42905 20.8481 8.93835 18.9744 11.9352C17.1008 14.9321 16.0032 16.686 15.6816 17.1969L11.4083 10.354L14.9588 4.66551C15.0831 4.46402 15.2732 4.36328 15.5288 4.36328C15.6311 4.36328 15.726 4.38484 15.8136 4.42796L21.7419 7.342C21.771 7.35651 21.7855 7.37807 21.7855 7.40668L21.7849 7.40729Z"
        fill="white" />
</svg>