<svg width="84" height="84" viewBox="0 0 84 84" fill="none" xmlns="http://www.w3.org/2000/svg">
<path d="M36.5396 34.3649V55.4662C36.5396 55.7658 36.4636 56.0206 36.3116 56.2308C36.1595 56.4411 35.9373 56.5462 35.6448 56.5462C35.4375 56.5462 35.2367 56.4981 35.0424 56.4021L26.5496 52.2103C26.294 52.09 26.0778 51.8892 25.9012 51.6078C25.7246 51.3264 25.6364 51.0477 25.6364 50.7717V30.2637C25.6364 30.024 25.6974 29.8201 25.8194 29.6522C25.9415 29.4843 26.1181 29.4004 26.3492 29.4004C26.5196 29.4004 26.7876 29.4904 27.1531 29.6704L36.4854 34.2753C36.5223 34.3115 36.5407 34.3414 36.5407 34.3649H36.5396ZM37.7086 36.1813L47.4614 51.7599L37.7086 46.9747V36.1813V36.1813ZM58.3636 36.5057V55.4662C58.3636 55.7658 58.2784 56.0085 58.1079 56.1946C57.9375 56.3806 57.706 56.4736 57.4135 56.4736C57.121 56.4736 56.835 56.3957 56.5554 56.2399L48.5015 52.2818L58.3636 36.5057ZM58.3084 34.3468C58.3084 34.383 56.747 36.8986 53.6243 41.8933C50.5016 46.8881 48.6723 49.8113 48.1364 50.6629L41.0141 39.2579L46.9316 29.7771C47.1389 29.4413 47.4556 29.2734 47.8817 29.2734C48.0521 29.2734 48.2103 29.3094 48.3562 29.3812L58.2368 34.238C58.2852 34.2622 58.3094 34.2981 58.3094 34.3458L58.3084 34.3468Z" fill="#05050E"/>
<circle opacity="0.3" cx="42" cy="42" r="41.5" fill="white" fill-opacity="0.1" stroke="#05050E"/>
</svg>
