<svg width="85" height="85" viewBox="0 0 85 85" fill="none" xmlns="http://www.w3.org/2000/svg">
    <circle opacity="0.3" cx="42" cy="42" r="41.5" fill="white" fill-opacity="0.1" stroke="#05050E" />
    <path
        d="M36.5395 34.3649V55.4662C36.5395 55.7658 36.4635 56.0206 36.3115 56.2308C36.1594 56.4411 35.9371 56.5462 35.6446 56.5462C35.4374 56.5462 35.2366 56.4981 35.0423 56.4021L26.5495 52.2103C26.2938 52.09 26.0777 51.8892 25.9011 51.6078C25.7245 51.3264 25.6362 51.0477 25.6362 50.7717V30.2637C25.6362 30.024 25.6973 29.8201 25.8193 29.6522C25.9413 29.4843 26.1179 29.4004 26.3491 29.4004C26.5195 29.4004 26.7875 29.4904 27.1529 29.6704L36.4853 34.2753C36.5221 34.3115 36.5405 34.3414 36.5405 34.3649H36.5395ZM37.7085 36.1813L47.4612 51.7599L37.7085 46.9747V36.1813ZM58.3635 36.5057V55.4662C58.3635 55.7658 58.2783 56.0085 58.1078 56.1946C57.9374 56.3806 57.7059 56.4736 57.4134 56.4736C57.1209 56.4736 56.8349 56.3957 56.5553 56.2399L48.5013 52.2818L58.3635 36.5057ZM58.3083 34.3468C58.3083 34.383 56.7469 36.8986 53.6242 41.8933C50.5015 46.8881 48.6721 49.8113 48.1362 50.6629L41.014 39.2579L46.9315 29.7771C47.1387 29.4413 47.4554 29.2734 47.8816 29.2734C48.052 29.2734 48.2102 29.3094 48.3561 29.3812L58.2367 34.238C58.2851 34.2622 58.3093 34.2981 58.3093 34.3458L58.3083 34.3468Z"
        fill="#05050E" />
    <path d="M76 84L83.84 76" stroke="#05050E" />
    <path d="M76 76L84 76L84 84" stroke="#05050E" />
</svg>