<svg width="84" height="84" viewBox="0 0 84 84" fill="none" xmlns="http://www.w3.org/2000/svg">
<path d="M54.6488 29.9101C54.6387 29.8895 54.622 29.8734 54.6016 29.8646C52.2439 28.7288 49.7559 27.9189 47.1998 27.4551C47.1766 27.4506 47.1526 27.4538 47.1313 27.4645C47.1099 27.4751 47.0923 27.4925 47.0809 27.5142C46.7421 28.1598 46.4346 28.823 46.1594 29.5012C43.4041 29.0621 40.6014 29.0621 37.8461 29.5012C37.5692 28.8213 37.2567 28.158 36.9101 27.5142C36.8982 27.4929 36.8805 27.4759 36.8593 27.4654C36.8381 27.4549 36.8143 27.4513 36.7911 27.4551C34.2348 27.9179 31.7466 28.7279 29.3892 29.8647C29.3691 29.8736 29.352 29.889 29.3405 29.9086C24.6263 37.3007 23.3349 44.511 23.9684 51.6321C23.9702 51.6495 23.9753 51.6664 23.9834 51.6818C23.9915 51.6971 24.0025 51.7106 24.0157 51.7214C26.7608 53.8555 29.8311 55.4845 33.0958 56.5388C33.1188 56.5461 33.1434 56.5457 33.1662 56.5379C33.189 56.5301 33.2089 56.5151 33.2234 56.4949C33.9246 55.4932 34.5459 54.4324 35.081 53.3234C35.0883 53.3082 35.0925 53.2915 35.0933 53.2744C35.0941 53.2574 35.0914 53.2404 35.0854 53.2245C35.0795 53.2086 35.0704 53.1942 35.0588 53.1823C35.0471 53.1704 35.0332 53.1612 35.018 53.1553C34.0382 52.7617 33.0897 52.2872 32.1813 51.7363C32.1648 51.7261 32.151 51.7118 32.141 51.6947C32.131 51.6775 32.1252 51.6581 32.124 51.638C32.1229 51.6179 32.1265 51.5979 32.1345 51.5796C32.1425 51.5614 32.1547 51.5455 32.1699 51.5333C32.361 51.3834 32.5489 51.2289 32.7332 51.0699C32.7494 51.0559 32.769 51.0469 32.7897 51.044C32.8105 51.041 32.8316 51.0442 32.8507 51.0532C38.8018 53.905 45.2447 53.905 51.1254 51.0532C51.1445 51.0437 51.1659 51.04 51.187 51.0427C51.208 51.0454 51.2279 51.0543 51.2444 51.0684C51.4289 51.2282 51.6172 51.3832 51.8091 51.5333C51.8244 51.5453 51.8367 51.5611 51.8448 51.5793C51.8529 51.5975 51.8567 51.6175 51.8557 51.6376C51.8547 51.6577 51.849 51.6772 51.8391 51.6944C51.8293 51.7116 51.8155 51.726 51.7991 51.7363C50.8928 52.2918 49.9434 52.766 48.9611 53.1538C48.9459 53.1599 48.932 53.1693 48.9205 53.1814C48.9089 53.1935 48.8999 53.2081 48.8941 53.2241C48.8882 53.2401 48.8857 53.2572 48.8866 53.2743C48.8875 53.2914 48.8918 53.3081 48.8993 53.3234C49.4433 54.4262 50.0637 55.4857 50.7554 56.4932C50.7695 56.5139 50.7893 56.5294 50.8122 56.5375C50.8351 56.5457 50.8599 56.5461 50.883 56.5386C54.1535 55.4879 57.2293 53.8587 59.9778 51.7214C59.9912 51.7111 60.0023 51.698 60.0105 51.6828C60.0186 51.6677 60.0236 51.6509 60.0251 51.6336C60.7835 43.4009 58.7553 36.2496 54.6488 29.9101ZM35.9697 47.2961C34.178 47.2961 32.7017 45.5696 32.7017 43.4494C32.7017 41.3291 34.1494 39.6026 35.9697 39.6026C37.8043 39.6026 39.2663 41.3441 39.2377 43.4493C39.2377 45.5696 37.79 47.2961 35.9697 47.2961ZM48.0526 47.2961C46.261 47.2961 44.7847 45.5696 44.7847 43.4494C44.7847 41.3291 46.2323 39.6026 48.0526 39.6026C49.8873 39.6026 51.3493 41.3441 51.3207 43.4493C51.3207 45.5696 49.8873 47.2961 48.0526 47.2961Z" fill="#05050E"/>
<circle opacity="0.3" cx="42" cy="42" r="41.5" fill="white" fill-opacity="0.1" stroke="#05050E"/>
</svg>
