<svg width="85" height="85" viewBox="0 0 85 85" fill="none" xmlns="http://www.w3.org/2000/svg">
<circle opacity="0.3" cx="42" cy="42" r="41.5" fill="white" fill-opacity="0.1" stroke="#05050E"/>
<path d="M54.6491 29.9101C54.639 29.8895 54.6222 29.8734 54.6018 29.8646C52.2442 28.7288 49.7562 27.9189 47.2001 27.4551C47.1768 27.4506 47.1528 27.4538 47.1315 27.4645C47.1101 27.4751 47.0925 27.4925 47.0811 27.5142C46.7424 28.1598 46.4348 28.823 46.1597 29.5012C43.4044 29.0621 40.6017 29.0621 37.8464 29.5012C37.5694 28.8213 37.2569 28.158 36.9104 27.5142C36.8985 27.4929 36.8808 27.4759 36.8595 27.4654C36.8383 27.4549 36.8146 27.4513 36.7914 27.4551C34.235 27.9179 31.7468 28.7279 29.3895 29.8647C29.3693 29.8736 29.3523 29.889 29.3408 29.9086C24.6265 37.3007 23.3351 44.511 23.9686 51.6321C23.9704 51.6495 23.9755 51.6664 23.9836 51.6818C23.9918 51.6971 24.0028 51.7106 24.0159 51.7214C26.761 53.8555 29.8314 55.4845 33.0961 56.5388C33.119 56.5461 33.1436 56.5458 33.1664 56.5379C33.1892 56.5301 33.2092 56.5151 33.2236 56.4949C33.9248 55.4932 34.5461 54.4324 35.0812 53.3234C35.0886 53.3082 35.0928 53.2915 35.0935 53.2744C35.0943 53.2574 35.0916 53.2404 35.0857 53.2245C35.0797 53.2086 35.0706 53.1942 35.059 53.1823C35.0474 53.1704 35.0335 53.1612 35.0182 53.1553C34.0385 52.7617 33.09 52.2872 32.1816 51.7363C32.1651 51.7261 32.1512 51.7118 32.1412 51.6947C32.1312 51.6775 32.1254 51.6581 32.1243 51.638C32.1232 51.6179 32.1268 51.5979 32.1347 51.5796C32.1427 51.5614 32.1549 51.5455 32.1701 51.5333C32.3613 51.3834 32.5491 51.2289 32.7335 51.0699C32.7496 51.0559 32.7692 51.0469 32.79 51.044C32.8107 51.041 32.8319 51.0442 32.851 51.0532C38.8021 53.905 45.245 53.905 51.1256 51.0532C51.1448 51.0437 51.1661 51.04 51.1872 51.0427C51.2083 51.0454 51.2282 51.0543 51.2446 51.0684C51.4292 51.2282 51.6175 51.3832 51.8094 51.5333C51.8247 51.5453 51.8369 51.5611 51.8451 51.5793C51.8532 51.5975 51.8569 51.6175 51.8559 51.6376C51.8549 51.6577 51.8493 51.6772 51.8394 51.6944C51.8295 51.7116 51.8158 51.726 51.7993 51.7363C50.893 52.2918 49.9437 52.766 48.9614 53.1538C48.9461 53.1599 48.9322 53.1693 48.9207 53.1814C48.9091 53.1935 48.9002 53.2081 48.8943 53.2241C48.8885 53.2401 48.8859 53.2572 48.8868 53.2743C48.8877 53.2914 48.892 53.3081 48.8995 53.3234C49.4436 54.4262 50.064 55.4857 50.7557 56.4932C50.7697 56.5139 50.7896 56.5294 50.8125 56.5375C50.8354 56.5457 50.8601 56.5461 50.8833 56.5386C54.1538 55.4879 57.2295 53.8587 59.978 51.7214C59.9914 51.7111 60.0026 51.698 60.0107 51.6828C60.0189 51.6677 60.0239 51.6509 60.0253 51.6336C60.7838 43.4009 58.7556 36.2496 54.6491 29.9101V29.9101ZM35.97 47.2961C34.1783 47.2961 32.7019 45.5696 32.7019 43.4494C32.7019 41.3291 34.1496 39.6026 35.97 39.6026C37.8045 39.6026 39.2666 41.3441 39.2379 43.4492C39.2379 45.5696 37.7902 47.2961 35.97 47.2961V47.2961ZM48.0529 47.2961C46.2612 47.2961 44.7849 45.5696 44.7849 43.4494C44.7849 41.3291 46.2326 39.6026 48.0529 39.6026C49.8876 39.6026 51.3496 41.3441 51.3209 43.4492C51.3209 45.5696 49.8876 47.2961 48.0529 47.2961Z" fill="#05050E"/>
<path d="M76 84L83.84 76" stroke="#05050E"/>
<path d="M76 76L84 76L84 84" stroke="#05050E"/>
</svg>
