<svg width="267" height="55" viewBox="0 0 267 55" fill="none" xmlns="http://www.w3.org/2000/svg">
    <path fill-rule="evenodd" clip-rule="evenodd"
        d="M82.0234 17.7227H66.366V23.2227H74.8829C74.7302 23.8142 74.6528 24.4224 74.6525 25.0331L74.6087 38.9786V42.119H80.1392V38.9924L80.183 25.0506C80.1844 24.5653 80.3793 24.1004 80.7248 23.7577C81.0704 23.4151 81.5385 23.2227 82.0265 23.2227H88.4879V17.7227H82.0234ZM92.1957 34.7574V25.056C92.1979 23.1118 92.9755 21.2478 94.3579 19.873C95.7404 18.4982 97.6147 17.7249 99.5697 17.7227H114.318V23.2227H99.5697C99.0807 23.2227 98.6119 23.4158 98.2661 23.7596C97.9204 24.1034 97.7262 24.5698 97.7262 25.056V27.1949H114.318V32.6949H97.7262V34.7574C97.7262 35.2436 97.9204 35.7099 98.2661 36.0537C98.6119 36.3976 99.0807 36.5907 99.5697 36.5907H114.318V42.0907H99.5697C97.6147 42.0885 95.7404 41.3152 94.3579 39.9404C92.9755 38.5656 92.1979 36.7016 92.1957 34.7574ZM123.535 17.7227V34.7574C123.535 35.2436 123.729 35.7099 124.075 36.0537C124.421 36.3976 124.89 36.5907 125.379 36.5907H136.44V42.0907H125.379C123.424 42.0885 121.549 41.3152 120.167 39.9404C118.785 38.5656 118.007 36.7016 118.005 34.7574V17.7227H123.535ZM145.657 25.056C145.657 24.5698 145.851 24.1034 146.197 23.7596C146.543 23.4158 147.012 23.2227 147.501 23.2227H162.249V17.7227H147.501C145.546 17.7249 143.671 18.4982 142.289 19.873C140.906 21.2478 140.129 23.1118 140.127 25.056V34.7574C140.129 36.7016 140.906 38.5656 142.289 39.9404C143.671 41.3152 145.546 42.0885 147.501 42.0907H162.249V36.5907H147.501C147.012 36.5907 146.543 36.3976 146.197 36.0537C145.851 35.7099 145.657 35.2436 145.657 34.7574V32.6949L162.242 32.7308L162.255 27.2308L145.657 27.1949V25.056ZM165.936 17.7227H178.589C183.812 17.7227 188.061 21.6804 188.061 26.5456C188.061 31.4108 183.812 35.3685 178.589 35.3685H173.31C172.821 35.3685 172.352 35.5616 172.006 35.9055C171.66 36.2493 171.466 36.7156 171.466 37.2018V42.1671H165.936V17.7227ZM173.313 29.8685H178.589C180.759 29.8685 182.53 28.3781 182.53 26.5456C182.53 24.713 180.762 23.2227 178.589 23.2227H171.469V30.0977C172.071 29.9439 172.691 29.8669 173.313 29.8685ZM241.261 26.402C241.261 21.6185 237.281 17.7227 232.389 17.7227H219.09V42.1671H224.62V23.2227H232.389C234.233 23.2227 235.73 24.6488 235.73 26.402C235.73 28.1551 234.236 29.5767 232.398 29.5813L225.44 29.527L228.292 35.0232C229.409 37.1753 231.1 38.9802 233.18 40.2403C235.26 41.5003 237.648 42.1669 240.083 42.1671H241.2V36.6671H240.083C238.183 36.671 236.348 35.9771 234.931 34.7184C238.588 33.6467 241.261 30.3268 241.261 26.402ZM244.878 17.7227H261.951H267V23.2227H260.539C260.051 23.2227 259.582 23.4151 259.237 23.7577C258.891 24.1004 258.696 24.5653 258.695 25.0506L258.651 38.9924V42.119H253.121V38.9786L253.165 25.0331C253.165 24.4224 253.242 23.8142 253.395 23.2227H244.878V17.7227ZM203.226 17.7227H203.922C210.253 17.7227 215.403 22.8117 215.403 29.0664V30.747C215.403 37.0017 210.253 42.0907 203.922 42.0907H203.226C196.891 42.0907 191.745 37.0017 191.745 30.747V29.0664C191.745 22.8117 196.895 17.7227 203.226 17.7227ZM203.922 36.5907C207.183 36.5907 209.836 33.969 209.836 30.747V29.0664C209.836 25.8443 207.183 23.2227 203.922 23.2227H203.226C199.964 23.2227 197.311 25.8443 197.311 29.0664V30.747C197.311 33.969 199.964 36.5907 203.226 36.5907H203.922Z"
        fill="#111621" />
    <path fill-rule="evenodd" clip-rule="evenodd"
        d="M51.4242 22.1597C48.8744 20.6957 44.5166 23.1481 40.3742 27.9321C42.0485 26.6371 43.6035 26.1372 44.6506 26.7383C46.7666 27.9533 46.0062 33.2033 42.9517 38.4646C39.8973 43.7259 35.7056 47.0059 33.5896 45.7909C32.5425 45.1897 32.2004 43.6005 32.491 41.511C30.3962 47.4706 30.4394 52.45 32.9892 53.914C36.5162 55.939 43.502 50.4723 48.5927 41.7035C53.6835 32.9347 54.9511 24.1848 51.4242 22.1597Z"
        fill="url(#paint0_linear_1190_15283)" />
    <path fill-rule="evenodd" clip-rule="evenodd"
        d="M12.8997 42.3808C9.37269 40.3558 10.6403 31.6058 15.7311 22.837C20.8218 14.0682 27.8077 8.6015 31.3346 10.6266C33.0875 11.633 33.6557 14.3011 33.1588 17.8061C35.5866 9.85367 35.2098 3.32526 31.6243 1.26658C26.3338 -1.77102 16.0615 6.07349 8.6798 18.7884C1.29813 31.5034 -0.396915 44.2727 4.89354 47.3103C8.47905 49.3689 14.3526 46.4293 20.0639 40.3622C17.2601 42.5425 14.6525 43.3873 12.8997 42.3808Z"
        fill="url(#paint1_linear_1190_15283)" />
    <path
        d="M38.0014 32.4472L28.4223 26.9472C24.8953 24.9221 23.6869 20.4372 25.7232 16.9297L35.3023 22.4297C38.8293 24.4548 40.0377 28.9397 38.0014 32.4472Z"
        fill="#00C6D2" />
    <path
        d="M25.1631 39.8945L15.584 34.3945C17.6203 30.887 22.1301 29.6853 25.657 31.7103L35.2361 37.2103C33.1998 40.7179 28.6901 41.9196 25.1631 39.8945Z"
        fill="#00C6D2" />
    <defs>
        <linearGradient id="paint0_linear_1190_15283" x1="32.9142" y1="54.0879" x2="49.964" y2="23.1407"
            gradientUnits="userSpaceOnUse">
            <stop stop-color="#009EFD" />
            <stop offset="1" stop-color="#12EFCF" />
        </linearGradient>
        <linearGradient id="paint1_linear_1190_15283" x1="35.1033" y1="2.10686" x2="8.48205" y2="49.632"
            gradientUnits="userSpaceOnUse">
            <stop stop-color="#009EFD" />
            <stop offset="1" stop-color="#12EFCF" />
        </linearGradient>
    </defs>
</svg>