<svg width="266" height="55" viewBox="0 0 266 55" fill="none" xmlns="http://www.w3.org/2000/svg">
    <path fill-rule="evenodd" clip-rule="evenodd"
        d="M81.716 17.7227H66.1172V23.2227H74.6023C74.4501 23.8142 74.373 24.4224 74.3727 25.0331L74.3291 38.9786V42.119H79.8388V38.9924L79.8825 25.0506C79.8839 24.5653 80.078 24.1004 80.4223 23.7577C80.7665 23.4151 81.2329 23.2227 81.7191 23.2227H88.1563V17.7227H81.716ZM91.8502 34.7574V25.056C91.8524 23.1118 92.6271 21.2478 94.0043 19.873C95.3816 18.4982 97.2488 17.7249 99.1965 17.7227H113.889V23.2227H99.1965C98.7094 23.2227 98.2423 23.4158 97.8979 23.7596C97.5534 24.1034 97.3599 24.5698 97.3599 25.056V27.1949H113.889V32.6949H97.3599V34.7574C97.3599 35.2436 97.5534 35.7099 97.8979 36.0537C98.2423 36.3976 98.7094 36.5907 99.1965 36.5907H113.889V42.0907H99.1965C97.2488 42.0885 95.3816 41.3152 94.0043 39.9404C92.6271 38.5656 91.8524 36.7016 91.8502 34.7574ZM123.072 17.7227V34.7574C123.072 35.2436 123.266 35.7099 123.61 36.0537C123.955 36.3976 124.422 36.5907 124.909 36.5907H135.928V42.0907H124.909C122.961 42.0885 121.094 41.3152 119.717 39.9404C118.339 38.5656 117.565 36.7016 117.562 34.7574V17.7227H123.072ZM145.111 25.056C145.111 24.5698 145.305 24.1034 145.649 23.7596C145.994 23.4158 146.461 23.2227 146.948 23.2227H161.641V17.7227H146.948C145 17.7249 143.133 18.4982 141.756 19.873C140.379 21.2478 139.604 23.1118 139.602 25.056V34.7574C139.604 36.7016 140.379 38.5656 141.756 39.9404C143.133 41.3152 145 42.0885 146.948 42.0907H161.641V36.5907H146.948C146.461 36.5907 145.994 36.3976 145.649 36.0537C145.305 35.7099 145.111 35.2436 145.111 34.7574V32.6949L161.635 32.7308L161.647 27.2308L145.111 27.1949V25.056ZM165.314 17.7227H177.92C183.124 17.7227 187.356 21.6804 187.356 26.5456C187.356 31.4108 183.124 35.3685 177.92 35.3685H172.66C172.173 35.3685 171.706 35.5616 171.362 35.9055C171.017 36.2493 170.824 36.7156 170.824 37.2018V42.1671H165.314V17.7227ZM172.663 29.8685H177.92C180.082 29.8685 181.846 28.3781 181.846 26.5456C181.846 24.713 180.085 23.2227 177.92 23.2227H170.827V30.0977C171.427 29.9439 172.044 29.8669 172.663 29.8685ZM240.357 26.402C240.357 21.6185 236.392 17.7227 231.519 17.7227H218.269V42.1671H223.779V23.2227H231.519C233.355 23.2227 234.847 24.6488 234.847 26.402C234.847 28.1551 233.359 29.5767 231.528 29.5813L224.595 29.527L227.437 35.0232C228.55 37.1753 230.234 38.9802 232.306 40.2403C234.378 41.5003 236.758 42.1669 239.184 42.1671H240.296V36.6671H239.184C237.291 36.671 235.463 35.9771 234.051 34.7184C237.694 33.6467 240.357 30.3268 240.357 26.402ZM243.961 17.7227H260.97H266V23.2227H259.563C259.076 23.2227 258.61 23.4151 258.266 23.7577C257.921 24.1004 257.727 24.5653 257.726 25.0506L257.682 38.9924V42.119H252.173V38.9786L252.216 25.0331C252.216 24.4224 252.294 23.8142 252.446 23.2227H243.961V17.7227ZM202.464 17.7227H203.158C209.465 17.7227 214.596 22.8117 214.596 29.0664V30.747C214.596 37.0017 209.465 42.0907 203.158 42.0907H202.464C196.153 42.0907 191.026 37.0017 191.026 30.747V29.0664C191.026 22.8117 196.157 17.7227 202.464 17.7227ZM203.158 36.5907C206.407 36.5907 209.05 33.969 209.05 30.747V29.0664C209.05 25.8443 206.407 23.2227 203.158 23.2227H202.464C199.215 23.2227 196.572 25.8443 196.572 29.0664V30.747C196.572 33.969 199.215 36.5907 202.464 36.5907H203.158Z"
        fill="white" />
    <path fill-rule="evenodd" clip-rule="evenodd"
        d="M51.2317 22.1597C48.6915 20.6957 44.35 23.1481 40.2231 27.9321C41.8911 26.6371 43.4403 26.1372 44.4834 26.7383C46.5916 27.9533 45.834 33.2033 42.791 38.4646C39.7479 43.7259 35.572 47.0059 33.4639 45.7909C32.4208 45.1897 32.0799 43.6005 32.3694 41.511C30.2824 47.4706 30.3255 52.45 32.8657 53.914C36.3795 55.939 43.3392 50.4723 48.4109 41.7035C53.4825 32.9347 54.7454 24.1848 51.2317 22.1597Z"
        fill="#020202" />
    <path fill-rule="evenodd" clip-rule="evenodd"
        d="M51.2317 22.1597C48.6915 20.6957 44.35 23.1481 40.2231 27.9321C41.8911 26.6371 43.4403 26.1372 44.4834 26.7383C46.5916 27.9533 45.834 33.2033 42.791 38.4646C39.7479 43.7259 35.572 47.0059 33.4639 45.7909C32.4208 45.1897 32.0799 43.6005 32.3694 41.511C30.2824 47.4706 30.3255 52.45 32.8657 53.914C36.3795 55.939 43.3392 50.4723 48.4109 41.7035C53.4825 32.9347 54.7454 24.1848 51.2317 22.1597Z"
        fill="url(#paint0_linear_1066_15549)" />
    <path fill-rule="evenodd" clip-rule="evenodd"
        d="M12.8513 42.3808C9.33754 40.3558 10.6004 31.6058 15.6721 22.837C20.7438 14.0682 27.7035 8.6015 31.2172 10.6266C32.9635 11.633 33.5296 14.3011 33.0346 17.8061C35.4533 9.85367 35.0779 3.32526 31.5058 1.26658C26.2351 -1.77102 16.0013 6.07349 8.64725 18.7884C1.29323 31.5034 -0.395471 44.2727 4.87517 47.3103C8.44725 49.3689 14.2988 46.4293 19.9887 40.3622C17.1954 42.5425 14.5976 43.3873 12.8513 42.3808Z"
        fill="#020202" />
    <path fill-rule="evenodd" clip-rule="evenodd"
        d="M12.8513 42.3808C9.33754 40.3558 10.6004 31.6058 15.6721 22.837C20.7438 14.0682 27.7035 8.6015 31.2172 10.6266C32.9635 11.633 33.5296 14.3011 33.0346 17.8061C35.4533 9.85367 35.0779 3.32526 31.5058 1.26658C26.2351 -1.77102 16.0013 6.07349 8.64725 18.7884C1.29323 31.5034 -0.395471 44.2727 4.87517 47.3103C8.44725 49.3689 14.2988 46.4293 19.9887 40.3622C17.1954 42.5425 14.5976 43.3873 12.8513 42.3808Z"
        fill="url(#paint1_linear_1066_15549)" />
    <path
        d="M37.8593 32.4472L28.3161 26.9472C24.8023 24.9221 23.5985 20.4372 25.6271 16.9297L35.1704 22.4297C38.6841 24.4548 39.888 28.9397 37.8593 32.4472Z"
        fill="#00C6D2" />
    <path
        d="M25.0691 39.8945L15.5259 34.3945C17.5545 30.887 22.0475 29.6853 25.5612 31.7103L35.1044 37.2103C33.0758 40.7179 28.5829 41.9196 25.0691 39.8945Z"
        fill="#00C6D2" />
    <defs>
        <linearGradient id="paint0_linear_1066_15549" x1="32.791" y1="54.0879" x2="49.8749" y2="23.1949"
            gradientUnits="userSpaceOnUse">
            <stop stop-color="#009EFD" />
            <stop offset="1" stop-color="#12EFCF" />
        </linearGradient>
        <linearGradient id="paint1_linear_1066_15549" x1="34.9718" y1="2.10686" x2="8.29844" y2="49.5467"
            gradientUnits="userSpaceOnUse">
            <stop stop-color="#009EFD" />
            <stop offset="1" stop-color="#12EFCF" />
        </linearGradient>
    </defs>
</svg>