<svg width="85" height="85" viewBox="0 0 85 85" fill="none" xmlns="http://www.w3.org/2000/svg">
    <circle opacity="0.3" cx="42" cy="42" r="41.5" fill="white" fill-opacity="0.1" stroke="#05050E" />
    <path
        d="M56.4797 34.8977C56.4797 34.5417 56.4732 34.1897 56.4581 33.8401C57.9163 32.7061 59.1814 31.2866 60.182 29.6622C58.8231 30.3004 57.3772 30.7133 55.8963 30.886C57.4376 29.896 58.6196 28.3128 59.1781 26.4129C57.735 27.3264 56.1387 27.9794 54.4415 28.3197C53.0815 26.7047 51.1409 25.676 48.9955 25.6377C44.8751 25.5666 41.535 29.2008 41.535 33.7538C41.535 34.401 41.5999 35.0286 41.7286 35.6346C35.5239 35.2179 30.0258 31.847 26.348 26.7654C25.7062 27.9829 25.3381 29.4058 25.3381 30.9306C25.3381 33.8147 26.6552 36.378 28.6565 37.8905C27.4313 37.8327 26.2836 37.4454 25.277 36.8104V36.9163C25.277 40.9471 27.8495 44.3244 31.2628 45.1123C30.6371 45.2981 29.977 45.3948 29.2982 45.3913C28.8266 45.3887 28.3565 45.335 27.8955 45.231C28.844 48.5341 31.6005 50.9474 34.864 51.0278C32.3099 53.2382 29.0925 54.5585 25.5993 54.5492C24.997 54.5492 24.4019 54.507 23.8184 54.4306C27.1213 56.7953 31.042 58.1726 35.2568 58.1726C48.9767 58.176 56.4797 45.712 56.4797 34.8977V34.8977Z"
        fill="#05050E" />
    <path d="M76 84L83.84 76" stroke="#05050E" />
    <path d="M76 76L84 76L84 84" stroke="#05050E" />
</svg>