<svg width="84" height="84" viewBox="0 0 84 84" fill="none" xmlns="http://www.w3.org/2000/svg">
<circle opacity="0.3" cx="42" cy="42" r="41.5" fill="white" fill-opacity="0.1" stroke="#05050E"/>
<path d="M56.4796 34.8977C56.4796 34.5417 56.4731 34.1897 56.458 33.8401C57.9161 32.7061 59.1813 31.2866 60.1819 29.6622C58.823 30.3004 57.3771 30.7133 55.8962 30.886C57.4375 29.896 58.6194 28.3128 59.178 26.4129C57.7349 27.3264 56.1386 27.9794 54.4413 28.3197C53.0814 26.7047 51.1407 25.676 48.9953 25.6377C44.875 25.5666 41.5349 29.2008 41.5349 33.7538C41.5349 34.401 41.5997 35.0286 41.7285 35.6346C35.5238 35.2179 30.0257 31.847 26.3479 26.7654C25.7061 27.9829 25.3379 29.4058 25.3379 30.9306C25.3379 33.8147 26.6551 36.378 28.6564 37.8905C27.4312 37.8327 26.2835 37.4454 25.2769 36.8104V36.9163C25.2769 40.9471 27.8493 44.3244 31.2627 45.1123C30.6369 45.2981 29.9769 45.3948 29.2981 45.3913C28.8265 45.3887 28.3564 45.335 27.8954 45.231C28.8439 48.5341 31.6004 50.9474 34.8639 51.0278C32.3097 53.2382 29.0923 54.5585 25.5992 54.5492C24.9969 54.5492 24.4017 54.507 23.8182 54.4306C27.1212 56.7953 31.0419 58.1726 35.2567 58.1726C48.9765 58.176 56.4796 45.712 56.4796 34.8977Z" fill="#05050E"/>
</svg>
