<svg width="331" height="69" viewBox="0 0 331 69" fill="none" xmlns="http://www.w3.org/2000/svg">
    <path fill-rule="evenodd" clip-rule="evenodd"
        d="M101.684 22.2344H82.2739V29.1344H92.8324C92.6431 29.8764 92.5471 30.6395 92.5467 31.4056L92.4925 48.901V52.8407H99.3486V48.9182L99.4029 31.4277C99.4047 30.8188 99.6462 30.2355 100.075 29.8057C100.503 29.3758 101.083 29.1344 101.688 29.1344H109.699V22.2344H101.684ZM114.295 43.6052V31.4344C114.298 28.9952 115.262 26.6568 116.976 24.9321C118.689 23.2073 121.013 22.2372 123.437 22.2344H141.72V29.1344H123.437C122.83 29.1344 122.249 29.3767 121.821 29.808C121.392 30.2394 121.151 30.8244 121.151 31.4344V34.1177H141.72V41.0177H121.151V43.6052C121.151 44.2152 121.392 44.8002 121.821 45.2316C122.249 45.6629 122.83 45.9052 123.437 45.9052H141.72V52.8052H123.437C121.013 52.8024 118.689 51.8322 116.976 50.1075C115.262 48.3828 114.298 46.0443 114.295 43.6052ZM153.147 22.2344V43.6052C153.147 44.2152 153.387 44.8002 153.816 45.2316C154.245 45.6629 154.826 45.9052 155.432 45.9052H169.144V52.8052H155.432C153.008 52.8024 150.685 51.8322 148.971 50.1075C147.257 48.3828 146.293 46.0443 146.29 43.6052V22.2344H153.147ZM180.571 31.4344C180.571 30.8244 180.812 30.2394 181.241 29.808C181.669 29.3767 182.25 29.1344 182.857 29.1344H201.14V22.2344H182.857C180.433 22.2372 178.109 23.2073 176.396 24.9321C174.682 26.6568 173.718 28.9952 173.715 31.4344V43.6052C173.718 46.0443 174.682 48.3828 176.396 50.1075C178.109 51.8322 180.433 52.8024 182.857 52.8052H201.14V45.9052H182.857C182.25 45.9052 181.669 45.6629 181.241 45.2316C180.812 44.8002 180.571 44.2152 180.571 43.6052V41.0177L201.132 41.0628L201.147 34.1628L180.571 34.1177V31.4344ZM205.71 22.2344H221.397C227.872 22.2344 233.139 27.1995 233.139 33.3031C233.139 39.4068 227.872 44.3719 221.397 44.3719H214.852C214.246 44.3719 213.665 44.6142 213.236 45.0455C212.807 45.4769 212.567 46.0619 212.567 46.6719V52.901H205.71V22.2344ZM214.856 37.4719H221.397C224.087 37.4719 226.283 35.6022 226.283 33.3031C226.283 31.0041 224.091 29.1344 221.397 29.1344H212.57V37.7594C213.317 37.5664 214.085 37.4698 214.856 37.4719ZM299.091 33.123C299.091 27.1219 294.158 22.2344 288.093 22.2344H271.606V52.901H278.462V29.1344H288.093C290.378 29.1344 292.235 30.9236 292.235 33.123C292.235 35.3223 290.383 37.1058 288.104 37.1115L279.478 37.0435L283.014 43.9387C284.398 46.6386 286.495 48.903 289.073 50.4838C291.652 52.0645 294.612 52.9008 297.632 52.901H299.015V46.001H297.632C295.276 46.0059 293.001 45.1353 291.244 43.5563C295.777 42.2118 299.091 38.0469 299.091 33.123ZM303.575 22.2344H324.741H331V29.1344H322.99C322.385 29.1344 321.805 29.3758 321.376 29.8057C320.948 30.2355 320.706 30.8188 320.704 31.4277L320.65 48.9182V52.8407H313.794V48.901L313.848 31.4056C313.849 30.6395 313.945 29.8764 314.134 29.1344H303.575V22.2344ZM251.939 22.2344H252.802C260.65 22.2344 267.035 28.6188 267.035 36.4656V38.574C267.035 46.4208 260.65 52.8052 252.802 52.8052H251.939C244.086 52.8052 237.706 46.4208 237.706 38.574V36.4656C237.706 28.6188 244.091 22.2344 251.939 22.2344ZM252.802 45.9052C256.845 45.9052 260.134 42.6162 260.134 38.574V36.4656C260.134 32.4234 256.845 29.1344 252.802 29.1344H251.939C247.896 29.1344 244.607 32.4234 244.607 36.4656V38.574C244.607 42.6162 247.896 45.9052 251.939 45.9052H252.802Z"
        fill="#111621" />
    <path fill-rule="evenodd" clip-rule="evenodd"
        d="M63.7501 27.7982C60.5892 25.9616 55.1868 29.0383 50.0515 35.04C52.1271 33.4153 54.0549 32.7881 55.3529 33.5423C57.9762 35.0666 57.0334 41.653 53.2468 48.2535C49.4602 54.854 44.2639 58.9689 41.6406 57.4446C40.3426 56.6904 39.9184 54.6966 40.2786 52.0753C37.6817 59.5519 37.7353 65.7987 40.8963 67.6354C45.2687 70.1759 53.929 63.3177 60.24 52.3168C66.551 41.3159 68.1225 30.3388 63.7501 27.7982Z"
        fill="#020202" />
    <path fill-rule="evenodd" clip-rule="evenodd"
        d="M63.7501 27.7982C60.5892 25.9616 55.1868 29.0383 50.0515 35.04C52.1271 33.4153 54.0549 32.7881 55.3529 33.5423C57.9762 35.0666 57.0334 41.653 53.2468 48.2535C49.4602 54.854 44.2639 58.9689 41.6406 57.4446C40.3426 56.6904 39.9184 54.6966 40.2786 52.0753C37.6817 59.5519 37.7353 65.7987 40.8963 67.6354C45.2687 70.1759 53.929 63.3177 60.24 52.3168C66.551 41.3159 68.1225 30.3388 63.7501 27.7982Z"
        fill="url(#paint0_linear_167_14917)" />
    <path fill-rule="evenodd" clip-rule="evenodd"
        d="M15.9915 53.1649C11.6191 50.6244 13.1906 39.6472 19.5016 28.6463C25.8126 17.6455 34.4729 10.7872 38.8453 13.3277C41.0183 14.5904 41.7227 17.9376 41.1068 22.3348C44.1165 12.3581 43.6493 4.16793 39.2044 1.58522C32.6458 -2.22559 19.9112 7.6157 10.7601 23.5672C1.60906 39.5186 -0.492294 55.5383 6.06629 59.3491C10.5112 61.9318 17.7927 58.2439 24.8729 50.6324C21.3971 53.3678 18.1645 54.4275 15.9915 53.1649Z"
        fill="#020202" />
    <path fill-rule="evenodd" clip-rule="evenodd"
        d="M15.9915 53.1649C11.6191 50.6244 13.1906 39.6472 19.5016 28.6463C25.8126 17.6455 34.4729 10.7872 38.8453 13.3277C41.0183 14.5904 41.7227 17.9376 41.1068 22.3348C44.1165 12.3581 43.6493 4.16793 39.2044 1.58522C32.6458 -2.22559 19.9112 7.6157 10.7601 23.5672C1.60906 39.5186 -0.492294 55.5383 6.06629 59.3491C10.5112 61.9318 17.7927 58.2439 24.8729 50.6324C21.3971 53.3678 18.1645 54.4275 15.9915 53.1649Z"
        fill="url(#paint1_linear_167_14917)" />
    <path
        d="M47.1102 40.7057L35.235 33.8057C30.8626 31.2652 29.3646 25.6386 31.889 21.2383L43.7642 28.1383C48.1366 30.6788 49.6346 36.3054 47.1102 40.7057Z"
        fill="#00C6D2" />
    <path
        d="M31.1945 50.0487L19.3193 43.1487C21.8437 38.7484 27.4345 37.2407 31.8069 39.7813L43.6821 46.6813C41.1577 51.0816 35.5669 52.5893 31.1945 50.0487Z"
        fill="#00C6D2" />
    <defs>
        <linearGradient id="paint0_linear_167_14917" x1="40.8033" y1="67.8536" x2="62.3284" y2="29.2456"
            gradientUnits="userSpaceOnUse">
            <stop stop-color="#009EFD" />
            <stop offset="1" stop-color="#12EFCF" />
        </linearGradient>
        <linearGradient id="paint1_linear_167_14917" x1="43.5173" y1="2.63938" x2="9.9132" y2="61.9208"
            gradientUnits="userSpaceOnUse">
            <stop stop-color="#009EFD" />
            <stop offset="1" stop-color="#12EFCF" />
        </linearGradient>
    </defs>
</svg>