<svg width="1920" height="600" viewBox="0 0 1920 600" fill="none" xmlns="http://www.w3.org/2000/svg">
<g clip-path="url(#clip0_2185_22576)">
<g filter="url(#filter0_f_2185_22576)">
<ellipse cx="655.08" cy="-174.372" rx="377.83" ry="237.173" transform="rotate(-1.29156 655.08 -174.372)" fill="#FFD099" fill-opacity="0.7"/>
</g>
<g opacity="0.4" filter="url(#filter1_f_2185_22576)">
<path d="M785.193 -283.164C827.569 -73.3251 653 97.5 415.19 186.999C261.732 331.5 -52.1238 419.71 -94.4999 209.871C-136.876 0.0323793 15.0087 -523.07 261.732 -572.895C508.455 -622.719 742.816 -493.003 785.193 -283.164Z" fill="#59C3AA" fill-opacity="0.8"/>
</g>
<g opacity="0.4" filter="url(#filter2_f_2185_22576)">
<path d="M2299.69 -189.08C2330.61 -35.9603 2267.39 188.219 1813.94 188.219C1360.5 188.219 1030.42 42.6176 999.5 -110.502C968.578 -263.621 1492.03 -314.53 1759.47 -368.538C2026.9 -422.545 2268.77 -342.199 2299.69 -189.08Z" fill="#59C3AA"/>
</g>
<g opacity="0.4" filter="url(#filter3_f_2185_22576)">
<ellipse cx="-54.3191" cy="205.806" rx="222.843" ry="314.017" transform="rotate(33.3087 -54.3191 205.806)" fill="#41BBFF" fill-opacity="0.9"/>
</g>
</g>
<defs>
<filter id="filter0_f_2185_22576" x="-22.6924" y="-711.641" width="1355.55" height="1074.54" filterUnits="userSpaceOnUse" color-interpolation-filters="sRGB">
<feFlood flood-opacity="0" result="BackgroundImageFix"/>
<feBlend mode="normal" in="SourceGraphic" in2="BackgroundImageFix" result="shape"/>
<feGaussianBlur stdDeviation="150" result="effect1_foregroundBlur_2185_22576"/>
</filter>
<filter id="filter1_f_2185_22576" x="-301.567" y="-783.547" width="1293.12" height="1318.02" filterUnits="userSpaceOnUse" color-interpolation-filters="sRGB">
<feFlood flood-opacity="0" result="BackgroundImageFix"/>
<feBlend mode="normal" in="SourceGraphic" in2="BackgroundImageFix" result="shape"/>
<feGaussianBlur stdDeviation="100" result="effect1_foregroundBlur_2185_22576"/>
</filter>
<filter id="filter2_f_2185_22576" x="798.188" y="-585.359" width="1708.15" height="973.578" filterUnits="userSpaceOnUse" color-interpolation-filters="sRGB">
<feFlood flood-opacity="0" result="BackgroundImageFix"/>
<feBlend mode="normal" in="SourceGraphic" in2="BackgroundImageFix" result="shape"/>
<feGaussianBlur stdDeviation="100" result="effect1_foregroundBlur_2185_22576"/>
</filter>
<filter id="filter3_f_2185_22576" x="-508.131" y="-283.824" width="907.624" height="979.262" filterUnits="userSpaceOnUse" color-interpolation-filters="sRGB">
<feFlood flood-opacity="0" result="BackgroundImageFix"/>
<feBlend mode="normal" in="SourceGraphic" in2="BackgroundImageFix" result="shape"/>
<feGaussianBlur stdDeviation="100" result="effect1_foregroundBlur_2185_22576"/>
</filter>
<clipPath id="clip0_2185_22576">
<rect width="1920" height="600" fill="white"/>
</clipPath>
</defs>
</svg>
