<svg width="24" height="24" viewBox="0 0 24 24" fill="none" xmlns="http://www.w3.org/2000/svg">
    <path
        d="M20.6877 7.74019C20.6877 7.52658 20.6837 7.31537 20.6747 7.10562C21.5496 6.42522 22.3086 5.57351 22.909 4.59888C22.0937 4.98178 21.2261 5.22952 20.3376 5.33315C21.2624 4.73919 21.9715 3.78927 22.3067 2.64931C21.4408 3.1974 20.483 3.58923 19.4647 3.7934C18.6487 2.82436 17.4843 2.20714 16.1971 2.18421C13.7249 2.14155 11.7208 4.32205 11.7208 7.05384C11.7208 7.44214 11.7597 7.81871 11.837 8.18235C8.11417 7.93231 4.81528 5.90979 2.60859 2.86083C2.22355 3.59132 2.00264 4.44504 2.00264 5.35994C2.00264 7.09036 2.79293 8.62833 3.9937 9.53588C3.2586 9.50117 2.56999 9.2688 1.96601 8.88781V8.95136C1.96601 11.3698 3.50948 13.3962 5.5575 13.869C5.18204 13.9804 4.78603 14.0384 4.37874 14.0363C4.09576 14.0348 3.8137 14.0026 3.53711 13.9401C4.10619 15.922 5.76012 17.37 7.71819 17.4182C6.18573 18.7445 4.25528 19.5366 2.15939 19.5311C1.79802 19.5311 1.44092 19.5058 1.09082 19.4599C3.0726 20.8788 5.42503 21.7051 7.95388 21.7051C16.1858 21.7072 20.6877 14.2287 20.6877 7.74019Z"
        fill="white" />
</svg>