<svg width="583" height="125" viewBox="0 0 583 125" fill="none" xmlns="http://www.w3.org/2000/svg">
    <path
        d="M83.6 72.97L89.32 23.14H116.16L101.42 103H67.65L60.17 58.45L51.48 103H19.14L4.4 23.14H31.24L36.85 72.31L45.65 23.14H75.02L83.6 72.97ZM150.887 82.87C178.754 82.7233 198.957 82.32 211.497 81.66C210.984 84.6667 210.654 87.7833 210.507 91.01C210.434 94.1633 210.397 98.16 210.397 103H124.927C125.514 88.7733 125.807 75.4633 125.807 63.07C125.807 50.6767 125.514 37.3667 124.927 23.14H210.397V43.05H150.887V53.61C154.407 53.6833 159.614 53.72 166.507 53.72C178.167 53.72 190.231 53.5 202.697 53.06V71.98C190.231 71.54 178.167 71.32 166.507 71.32C159.614 71.32 154.407 71.3567 150.887 71.43V82.87ZM284.778 63.29C301.498 63.29 309.858 68.6067 309.858 79.24C309.858 84.2267 308.721 88.48 306.448 92C304.175 95.4467 300.105 98.16 294.238 100.14C288.371 102.047 280.231 103 269.818 103H220.318C220.905 88.7733 221.198 75.4633 221.198 63.07C221.198 50.6767 220.905 37.3667 220.318 23.14H246.168V23.25H269.598C278.691 23.25 285.841 24.02 291.048 25.56C296.328 27.0267 300.031 29.19 302.158 32.05C304.358 34.91 305.458 38.54 305.458 42.94C305.458 47.4133 303.881 51.41 300.728 54.93C297.648 58.3767 292.331 61.1633 284.778 63.29ZM246.168 43.27V53.5H267.288C271.835 53.5 274.988 53.0967 276.748 52.29C278.581 51.4833 279.498 50.0167 279.498 47.89C279.498 46.2033 278.545 45.03 276.638 44.37C274.805 43.6367 271.688 43.27 267.288 43.27H246.168ZM267.288 82.87C271.101 82.87 273.998 82.7233 275.978 82.43C278.031 82.0633 279.498 81.4767 280.378 80.67C281.258 79.79 281.698 78.6167 281.698 77.15C281.698 75.2433 280.635 73.8867 278.508 73.08C276.455 72.2 272.715 71.76 267.288 71.76H246.168V82.87H267.288ZM402.01 62.52C404.65 62.0067 407.254 61.75 409.82 61.75C414.294 61.75 417.924 62.52 420.71 64.06C423.57 65.5267 425.624 67.4333 426.87 69.78C428.117 72.0533 428.74 74.4367 428.74 76.93C428.74 82.7233 426.834 87.6733 423.02 91.78C419.207 95.8133 414.037 98.8933 407.51 101.02C400.984 103.073 393.724 104.1 385.73 104.1C362.557 104.1 347.56 96.0333 340.74 79.9L346.9 78.36C351.447 77.26 355.297 76.2333 358.45 75.28C361.677 74.2533 364.5 73.1167 366.92 71.87C368.387 75.5367 370.477 78.1767 373.19 79.79C375.977 81.33 379.79 82.1 384.63 82.1C389.764 82.1 393.944 81.5133 397.17 80.34C400.397 79.1667 402.01 77.4067 402.01 75.06C402.01 73.8133 401.387 72.86 400.14 72.2C398.894 71.54 396.914 71.1 394.2 70.88C391.487 70.5867 387.674 70.44 382.76 70.44H374.4V51.19H379.46C385.034 51.19 389.58 50.97 393.1 50.53C396.62 50.0167 398.38 48.9533 398.38 47.34C398.38 45.5067 397.427 44.04 395.52 42.94C393.687 41.7667 390.79 41.18 386.83 41.18C381.697 41.18 377.517 42.2433 374.29 44.37C371.137 46.4967 368.68 49.5767 366.92 53.61C359.074 50.4567 350.714 48.22 341.84 46.9C345.36 38.98 350.75 32.8567 358.01 28.53C365.344 24.2033 374.767 22.04 386.28 22.04C393.76 22.04 400.47 23.03 406.41 25.01C412.424 26.9167 417.117 29.5933 420.49 33.04C423.937 36.4867 425.66 40.3367 425.66 44.59C425.66 47.0833 425.074 49.32 423.9 51.3C422.727 53.2067 420.417 55.1133 416.97 57.02C413.524 58.8533 408.537 60.6867 402.01 62.52ZM448.085 104.1C444.858 104.1 442.108 102.963 439.835 100.69C437.562 98.3433 436.425 95.5567 436.425 92.33C436.425 89.1033 437.562 86.3533 439.835 84.08C442.108 81.8067 444.858 80.67 448.085 80.67C451.238 80.67 453.952 81.8433 456.225 84.19C458.572 86.4633 459.745 89.1767 459.745 92.33C459.745 95.5567 458.572 98.3433 456.225 100.69C453.952 102.963 451.238 104.1 448.085 104.1ZM513.586 104.1C497.819 104.1 486.196 100.47 478.716 93.21C471.236 85.95 467.496 75.8667 467.496 62.96C467.496 50.1267 471.236 40.1167 478.716 32.93C486.269 25.67 497.892 22.04 513.586 22.04C529.279 22.04 540.866 25.67 548.346 32.93C555.826 40.1167 559.566 50.1267 559.566 62.96C559.566 75.8667 555.826 85.95 548.346 93.21C540.866 100.47 529.279 104.1 513.586 104.1ZM513.696 84.85C520.442 84.85 525.356 82.7967 528.436 78.69C531.516 74.51 533.056 69.2667 533.056 62.96C533.056 56.7267 531.516 51.5567 528.436 47.45C525.356 43.27 520.442 41.18 513.696 41.18C506.729 41.18 501.669 43.27 498.516 47.45C495.436 51.5567 493.896 56.7267 493.896 62.96C493.896 69.1933 495.436 74.4 498.516 78.58C501.669 82.76 506.729 84.85 513.696 84.85Z"
        fill="white" />
    <path
        d="M102.6 87.97L99.6435 88.4791L105.58 88.3121L102.6 87.97ZM108.32 38.14V35.14H105.645L105.34 37.7979L108.32 38.14ZM135.16 38.14L138.11 38.6845L138.764 35.14H135.16V38.14ZM120.42 118V121H122.917L123.37 118.545L120.42 118ZM86.65 118L83.6914 118.497L84.1117 121H86.65V118ZM79.17 73.45L82.1286 72.9532L76.2255 72.8756L79.17 73.45ZM70.48 118V121H72.9514L73.4245 118.574L70.48 118ZM38.14 118L35.1898 118.545L35.643 121H38.14V118ZM23.4 38.14V35.14H19.7956L20.4498 38.6845L23.4 38.14ZM50.24 38.14L53.2207 37.7999L52.9172 35.14H50.24V38.14ZM55.85 87.31L52.8693 87.6501L58.8031 87.8385L55.85 87.31ZM64.65 38.14V35.14H62.1392L61.6969 37.6115L64.65 38.14ZM94.02 38.14L96.9765 37.6309L96.5476 35.14H94.02V38.14ZM105.58 88.3121L111.3 38.4821L105.34 37.7979L99.6196 87.6279L105.58 88.3121ZM108.32 41.14H135.16V35.14H108.32V41.14ZM132.21 37.5955L117.47 117.455L123.37 118.545L138.11 38.6845L132.21 37.5955ZM120.42 115H86.65V121H120.42V115ZM89.6086 117.503L82.1286 72.9532L76.2114 73.9467L83.6914 118.497L89.6086 117.503ZM76.2255 72.8756L67.5355 117.426L73.4245 118.574L82.1145 74.0244L76.2255 72.8756ZM70.48 115H38.14V121H70.48V115ZM41.0902 117.455L26.3502 37.5955L20.4498 38.6845L35.1898 118.545L41.0902 117.455ZM23.4 41.14H50.24V35.14H23.4V41.14ZM47.2593 38.4801L52.8693 87.6501L58.8307 86.9699L53.2207 37.7999L47.2593 38.4801ZM58.8031 87.8385L67.6031 38.6685L61.6969 37.6115L52.8969 86.7815L58.8031 87.8385ZM64.65 41.14H94.02V35.14H64.65V41.14ZM91.0635 38.6491L99.6435 88.4791L105.556 87.4609L96.9765 37.6309L91.0635 38.6491ZM169.887 97.87H166.887V100.886L169.903 100.87L169.887 97.87ZM230.497 96.66L233.455 97.1649L234.086 93.467L230.34 93.6641L230.497 96.66ZM229.507 106.01L226.51 105.874L226.509 105.907L226.508 105.94L229.507 106.01ZM229.397 118V121H232.397V118H229.397ZM143.927 118L140.93 117.876L140.801 121H143.927V118ZM143.927 38.14V35.14H140.801L140.93 38.2636L143.927 38.14ZM229.397 38.14H232.397V35.14H229.397V38.14ZM229.397 58.05V61.05H232.397V58.05H229.397ZM169.887 58.05V55.05H166.887V58.05H169.887ZM169.887 68.61H166.887V71.5481L169.825 71.6093L169.887 68.61ZM221.697 68.06H224.697V64.9522L221.592 65.0619L221.697 68.06ZM221.697 86.98L221.592 89.9781L224.697 90.0878V86.98H221.697ZM169.887 86.43L169.825 83.4306L166.887 83.4919V86.43H169.887ZM169.903 100.87C197.774 100.723 218.039 100.32 230.655 99.6559L230.34 93.6641C217.876 94.3201 197.734 94.7234 169.872 94.87L169.903 100.87ZM227.54 96.1551C227.005 99.2906 226.662 102.531 226.51 105.874L232.504 106.146C232.646 103.036 232.963 100.043 233.455 97.1649L227.54 96.1551ZM226.508 105.94C226.434 109.126 226.397 113.148 226.397 118H232.397C232.397 113.172 232.434 109.201 232.507 106.08L226.508 105.94ZM229.397 115H143.927V121H229.397V115ZM146.925 118.124C147.513 103.862 147.807 90.5101 147.807 78.07H141.807C141.807 90.4166 141.515 103.685 140.93 117.876L146.925 118.124ZM147.807 78.07C147.807 65.6299 147.513 52.2783 146.925 38.0164L140.93 38.2636C141.515 52.455 141.807 65.7234 141.807 78.07H147.807ZM143.927 41.14H229.397V35.14H143.927V41.14ZM226.397 38.14V58.05H232.397V38.14H226.397ZM229.397 55.05H169.887V61.05H229.397V55.05ZM166.887 58.05V68.61H172.887V58.05H166.887ZM169.825 71.6093C173.377 71.6833 178.609 71.72 185.507 71.72V65.72C178.619 65.72 173.438 65.6833 169.95 65.6106L169.825 71.6093ZM185.507 71.72C197.205 71.72 209.304 71.4993 221.803 71.0581L221.592 65.0619C209.158 65.5007 197.13 65.72 185.507 65.72V71.72ZM218.697 68.06V86.98H224.697V68.06H218.697ZM221.803 83.9819C209.304 83.5407 197.205 83.32 185.507 83.32V89.32C197.13 89.32 209.158 89.5393 221.592 89.9781L221.803 83.9819ZM185.507 83.32C178.609 83.32 173.377 83.3566 169.825 83.4306L169.95 89.4294C173.438 89.3567 178.619 89.32 185.507 89.32V83.32ZM166.887 86.43V97.87H172.887V86.43H166.887ZM303.778 78.29L302.965 75.4023L303.778 81.29V78.29ZM325.448 107L327.952 108.652L327.96 108.64L327.968 108.628L325.448 107ZM313.238 115.14L314.165 117.993L314.181 117.988L314.197 117.982L313.238 115.14ZM239.318 118L236.321 117.876L236.192 121H239.318V118ZM239.318 38.14V35.14H236.192L236.321 38.2636L239.318 38.14ZM265.168 38.14H268.168V35.14H265.168V38.14ZM265.168 38.25H262.168V41.25H265.168V38.25ZM310.048 40.56L309.197 43.4368L309.221 43.4439L309.245 43.4505L310.048 40.56ZM321.158 47.05L318.751 48.8401L318.765 48.8597L318.78 48.8791L321.158 47.05ZM319.728 69.93L317.493 67.9283L317.491 67.931L319.728 69.93ZM265.168 58.27V55.27H262.168V58.27H265.168ZM265.168 68.5H262.168V71.5H265.168V68.5ZM295.748 67.29L294.54 64.5441L294.519 64.5533L294.498 64.5628L295.748 67.29ZM295.638 59.37L294.524 62.1554L294.59 62.1818L294.657 62.205L295.638 59.37ZM294.978 97.43L295.418 100.398L295.462 100.391L295.505 100.383L294.978 97.43ZM299.378 95.67L301.405 97.8815L301.453 97.8374L301.499 97.7913L299.378 95.67ZM297.508 88.08L296.326 90.8374L296.385 90.8625L296.444 90.885L297.508 88.08ZM265.168 86.76V83.76H262.168V86.76H265.168ZM265.168 97.87H262.168V100.87H265.168V97.87ZM303.778 81.29C311.917 81.29 317.507 82.6014 320.978 84.8089C324.219 86.87 325.858 89.8592 325.858 94.24H331.858C331.858 87.9874 329.317 83.0017 324.198 79.7461C319.309 76.6369 312.359 75.29 303.778 75.29V81.29ZM325.858 94.24C325.858 98.7606 324.833 102.423 322.928 105.372L327.968 108.628C330.61 104.537 331.858 99.6928 331.858 94.24H325.858ZM322.944 105.348C321.182 108.019 317.814 110.429 312.279 112.298L314.197 117.982C320.395 115.891 325.167 112.874 327.952 108.652L322.944 105.348ZM312.311 112.287C306.88 114.052 299.102 115 288.818 115V121C299.361 121 307.863 120.041 314.165 117.993L312.311 112.287ZM288.818 115H239.318V121H288.818V115ZM242.315 118.124C242.904 103.862 243.198 90.5101 243.198 78.07H237.198C237.198 90.4166 236.906 103.685 236.321 117.876L242.315 118.124ZM243.198 78.07C243.198 65.6299 242.904 52.2783 242.315 38.0164L236.321 38.2636C236.906 52.455 237.198 65.7234 237.198 78.07H243.198ZM239.318 41.14H265.168V35.14H239.318V41.14ZM262.168 38.14V38.25H268.168V38.14H262.168ZM265.168 41.25H288.598V35.25H265.168V41.25ZM288.598 41.25C297.569 41.25 304.39 42.0151 309.197 43.4368L310.899 37.6832C305.292 36.0249 297.813 35.25 288.598 35.25V41.25ZM309.245 43.4505C314.209 44.8295 317.185 46.7347 318.751 48.8401L323.565 45.2599C320.878 41.6453 316.447 39.2239 310.851 37.6694L309.245 43.4505ZM318.78 48.8791C320.494 51.1077 321.458 54.0526 321.458 57.94H327.458C327.458 53.0274 326.222 48.7123 323.536 45.2209L318.78 48.8791ZM321.458 57.94C321.458 61.6303 320.184 64.9245 317.493 67.9283L321.962 71.9317C325.578 67.8954 327.458 63.1964 327.458 57.94H321.458ZM317.491 67.931C314.973 70.7487 310.309 73.3345 302.965 75.4023L304.591 81.1777C312.354 78.9921 318.323 76.0047 321.965 71.929L317.491 67.931ZM262.168 58.27V68.5H268.168V58.27H262.168ZM265.168 71.5H286.288V65.5H265.168V71.5ZM286.288 71.5C290.836 71.5 294.585 71.123 296.998 70.0172L294.498 64.5628C293.391 65.0704 290.834 65.5 286.288 65.5V71.5ZM296.956 70.0359C298.334 69.4295 299.529 68.4961 300.354 67.175C301.173 65.8661 301.498 64.3864 301.498 62.89H295.498C295.498 63.5202 295.365 63.8373 295.266 63.995C295.176 64.1406 294.995 64.3438 294.54 64.5441L296.956 70.0359ZM301.498 62.89C301.498 61.4423 301.073 60.0368 300.111 58.8532C299.183 57.7105 297.929 56.9883 296.619 56.535L294.657 62.205C295.254 62.4117 295.43 62.6061 295.455 62.6368C295.466 62.6504 295.469 62.6565 295.473 62.6699C295.479 62.6875 295.498 62.7528 295.498 62.89H301.498ZM296.752 56.5846C294.341 55.6199 290.715 55.27 286.288 55.27V61.27C290.661 61.27 293.269 61.6534 294.524 62.1554L296.752 56.5846ZM286.288 55.27H265.168V61.27H286.288V55.27ZM286.288 100.87C290.142 100.87 293.215 100.724 295.418 100.398L294.538 94.4624C292.781 94.7228 290.061 94.87 286.288 94.87V100.87ZM295.505 100.383C297.752 99.9821 299.897 99.2642 301.405 97.8815L297.351 93.4585C297.099 93.6892 296.31 94.1446 294.451 94.4767L295.505 100.383ZM301.499 97.7913C303.042 96.2491 303.698 94.2594 303.698 92.15H297.698C297.698 92.9739 297.474 93.3309 297.257 93.5487L301.499 97.7913ZM303.698 92.15C303.698 90.6012 303.251 89.1147 302.262 87.8519C301.301 86.6264 299.987 85.8119 298.572 85.275L296.444 90.885C297.155 91.1548 297.436 91.4219 297.539 91.5531C297.613 91.6469 297.698 91.7922 297.698 92.15H303.698ZM298.69 85.3226C296.01 84.1739 291.7 83.76 286.288 83.76V89.76C291.729 89.76 294.9 90.2261 296.326 90.8374L298.69 85.3226ZM286.288 83.76H265.168V89.76H286.288V83.76ZM262.168 86.76V97.87H268.168V86.76H262.168ZM265.168 100.87H286.288V94.87H265.168V100.87ZM421.01 77.52L420.199 74.6318L421.583 80.4648L421.01 77.52ZM439.71 79.06L438.259 81.6857L438.3 81.7082L438.342 81.7295L439.71 79.06ZM445.87 84.78L443.221 86.1875L443.23 86.205L443.24 86.2225L445.87 84.78ZM442.02 106.78L444.2 108.841L444.21 108.831L444.219 108.821L442.02 106.78ZM426.51 116.02L427.411 118.882L427.425 118.877L427.44 118.872L426.51 116.02ZM359.74 94.9L359.013 91.9896L355.612 92.8397L356.977 96.0681L359.74 94.9ZM365.9 93.36L365.195 90.4441L365.184 90.4468L365.173 90.4496L365.9 93.36ZM377.45 90.28L378.319 93.1516L378.339 93.1454L378.36 93.1388L377.45 90.28ZM385.92 86.87L388.706 85.7558L387.48 82.6918L384.547 84.2031L385.92 86.87ZM392.19 94.79L390.657 97.3686L390.698 97.3928L390.739 97.4157L392.19 94.79ZM416.17 95.34L415.145 92.5206L416.17 95.34ZM419.14 87.2L417.737 89.8514L419.14 87.2ZM413.2 85.88L412.878 88.8626L412.918 88.8669L412.958 88.8702L413.2 85.88ZM393.4 85.44H390.4V88.44H393.4V85.44ZM393.4 66.19V63.19H390.4V66.19H393.4ZM412.1 65.53L412.473 68.5068L412.503 68.503L412.533 68.4986L412.1 65.53ZM414.52 57.94L412.903 60.4668L412.961 60.504L413.021 60.5386L414.52 57.94ZM393.29 59.37L391.64 56.8651L391.626 56.8739L391.613 56.8828L393.29 59.37ZM385.92 68.61L384.802 71.3936L387.505 72.4799L388.67 69.8098L385.92 68.61ZM360.84 61.9L358.099 60.6816L356.497 64.2868L360.399 64.8673L360.84 61.9ZM377.01 43.53L375.486 40.9462L375.475 40.9529L377.01 43.53ZM425.41 40.01L424.462 42.856L424.483 42.863L424.504 42.8697L425.41 40.01ZM439.49 48.04L437.346 50.1384L437.358 50.1499L437.369 50.1613L439.49 48.04ZM442.9 66.3L445.455 67.8723L445.469 67.851L445.481 67.8294L442.9 66.3ZM435.97 72.02L437.379 74.6686L437.401 74.657L437.423 74.6451L435.97 72.02ZM421.583 80.4648C424.043 79.9865 426.455 79.75 428.82 79.75V73.75C426.053 73.75 423.258 74.0269 420.438 74.5751L421.583 80.4648ZM428.82 79.75C432.981 79.75 436.061 80.4706 438.259 81.6857L441.162 76.4343C437.787 74.5694 433.607 73.75 428.82 73.75V79.75ZM438.342 81.7295C440.772 82.9759 442.318 84.4875 443.221 86.1875L448.52 83.3725C446.93 80.3792 444.369 78.0774 441.079 76.3905L438.342 81.7295ZM443.24 86.2225C444.254 88.072 444.74 89.9614 444.74 91.93H450.74C450.74 88.9119 449.98 86.0347 448.501 83.3375L443.24 86.2225ZM444.74 91.93C444.74 96.9943 443.101 101.207 439.822 104.739L444.219 108.821C448.566 104.139 450.74 98.4523 450.74 91.93H444.74ZM439.841 104.719C436.444 108.312 431.743 111.16 425.581 113.168L427.44 118.872C434.332 116.627 439.971 113.315 444.2 108.841L439.841 104.719ZM425.61 113.158C419.419 115.106 412.469 116.1 404.73 116.1V122.1C412.979 122.1 420.549 121.041 427.411 118.882L425.61 113.158ZM404.73 116.1C393.469 116.1 384.457 114.137 377.524 110.408C370.646 106.709 365.656 101.188 362.504 93.7319L356.977 96.0681C360.645 104.745 366.563 111.325 374.682 115.692C382.746 120.03 392.819 122.1 404.73 122.1V116.1ZM360.468 97.8104L366.628 96.2704L365.173 90.4496L359.013 91.9896L360.468 97.8104ZM366.606 96.2759C371.187 95.1676 375.094 94.1264 378.319 93.1516L376.582 87.4084C373.5 88.3403 369.708 89.3524 365.195 90.4441L366.606 96.2759ZM378.36 93.1388C381.71 92.073 384.694 90.8763 387.294 89.5369L384.547 84.2031C382.307 85.3571 379.645 86.4337 376.541 87.4212L378.36 93.1388ZM383.135 87.9842C384.784 92.1069 387.247 95.3411 390.657 97.3686L393.724 92.2114C391.707 91.0123 389.99 88.9664 388.706 85.7558L383.135 87.9842ZM390.739 97.4157C394.143 99.2965 398.525 100.1 403.63 100.1V94.1C399.056 94.1 395.812 93.3635 393.642 92.1643L390.739 97.4157ZM403.63 100.1C408.957 100.1 413.52 99.4959 417.196 98.1594L415.145 92.5206C412.367 93.5308 408.57 94.1 403.63 94.1V100.1ZM417.196 98.1594C419.077 97.4752 420.768 96.5242 422.012 95.1672C423.316 93.7446 424.01 91.9983 424.01 90.06H418.01C418.01 90.4684 417.898 90.7754 417.589 91.1128C417.22 91.5158 416.491 92.0314 415.145 92.5206L417.196 98.1594ZM424.01 90.06C424.01 88.9109 423.715 87.7789 423.054 86.7682C422.406 85.7769 421.51 85.0602 420.544 84.5486L417.737 89.8514C418.017 89.9998 418.057 90.0897 418.032 90.0518C418.021 90.035 418.012 90.0138 418.007 89.9978C418.003 89.9839 418.01 90.0001 418.01 90.06H424.01ZM420.544 84.5486C418.739 83.5932 416.255 83.1178 413.443 82.8898L412.958 88.8702C415.573 89.0822 417.048 89.4868 417.737 89.8514L420.544 84.5486ZM413.523 82.8974C410.65 82.5868 406.711 82.44 401.76 82.44V88.44C406.637 88.44 410.324 88.5865 412.878 88.8626L413.523 82.8974ZM401.76 82.44H393.4V88.44H401.76V82.44ZM396.4 85.44V66.19H390.4V85.44H396.4ZM393.4 69.19H398.46V63.19H393.4V69.19ZM398.46 69.19C404.097 69.19 408.78 68.9684 412.473 68.5068L411.728 62.5532C408.381 62.9716 403.971 63.19 398.46 63.19V69.19ZM412.533 68.4986C414.442 68.2202 416.226 67.7524 417.612 66.9152C419.108 66.0114 420.38 64.4904 420.38 62.34H414.38C414.38 62.1621 414.439 61.9573 414.544 61.7987C414.629 61.6688 414.671 61.6819 414.509 61.7798C414.135 62.006 413.279 62.3264 411.668 62.5614L412.533 68.4986ZM420.38 62.34C420.38 59.2027 418.635 56.8503 416.02 55.3414L413.021 60.5386C414.219 61.2297 414.38 61.8107 414.38 62.34H420.38ZM416.138 55.4132C413.567 53.7681 409.959 53.18 405.83 53.18V59.18C409.622 59.18 411.807 59.7652 412.903 60.4668L416.138 55.4132ZM405.83 53.18C400.299 53.18 395.493 54.3252 391.64 56.8651L394.941 61.8749C397.541 60.1614 401.095 59.18 405.83 59.18V53.18ZM391.613 56.8828C387.917 59.3755 385.122 62.9383 383.171 67.4102L388.67 69.8098C390.239 66.215 392.357 63.6178 394.968 61.8572L391.613 56.8828ZM387.039 65.8264C378.962 62.5804 370.373 60.2851 361.282 58.9326L360.399 64.8673C369.054 66.1549 377.186 68.333 384.802 71.3936L387.039 65.8264ZM363.582 63.1184C366.857 55.7496 371.833 50.1078 378.546 46.1071L375.475 40.9529C367.668 45.6056 361.864 52.2104 358.099 60.6816L363.582 63.1184ZM378.535 46.1138C385.271 42.1392 394.121 40.04 405.28 40.04V34.04C393.413 34.04 383.416 36.2674 375.486 40.9462L378.535 46.1138ZM405.28 40.04C412.499 40.04 418.881 40.9956 424.462 42.856L426.359 37.1639C420.06 35.0644 413.022 34.04 405.28 34.04V40.04ZM424.504 42.8697C430.188 44.672 434.407 47.1346 437.346 50.1384L441.634 45.9416C437.828 42.0521 432.66 39.1613 426.317 37.1503L424.504 42.8697ZM437.369 50.1613C440.342 53.1345 441.66 56.2501 441.66 59.59H447.66C447.66 54.4232 445.532 49.8388 441.612 45.9187L437.369 50.1613ZM441.66 59.59C441.66 61.5915 441.196 63.2919 440.32 64.7706L445.481 67.8294C446.952 65.3481 447.66 62.5751 447.66 59.59H441.66ZM440.345 64.7277C439.578 65.9752 437.81 67.5741 434.518 69.3949L437.423 74.6451C441.025 72.6525 443.876 70.4381 445.455 67.8723L440.345 64.7277ZM434.562 69.3714C431.394 71.0562 426.646 72.8208 420.199 74.6318L421.822 80.4082C428.428 78.5525 433.653 76.6505 437.379 74.6686L434.562 69.3714ZM458.835 115.69L456.68 117.777L456.697 117.794L456.714 117.811L458.835 115.69ZM458.835 99.08L456.714 96.9587L458.835 99.08ZM475.225 99.19L473.07 101.277L473.103 101.312L473.138 101.345L475.225 99.19ZM475.225 115.69L473.104 113.569L475.225 115.69ZM467.085 116.1C464.651 116.1 462.665 115.277 460.956 113.569L456.714 117.811C459.552 120.65 463.066 122.1 467.085 122.1V116.1ZM460.99 113.603C459.251 111.808 458.425 109.767 458.425 107.33H452.425C452.425 111.347 453.872 114.879 456.68 117.777L460.99 113.603ZM458.425 107.33C458.425 104.896 459.248 102.91 460.956 101.201L456.714 96.9587C453.875 99.7969 452.425 103.311 452.425 107.33H458.425ZM460.956 101.201C462.665 99.4929 464.651 98.67 467.085 98.67V92.67C463.066 92.67 459.552 94.1204 456.714 96.9587L460.956 101.201ZM467.085 98.67C469.394 98.67 471.339 99.4904 473.07 101.277L477.38 97.1026C474.564 94.1963 471.083 92.67 467.085 92.67V98.67ZM473.138 101.345C474.925 103.076 475.745 105.021 475.745 107.33H481.745C481.745 103.332 480.219 99.8508 477.312 97.0353L473.138 101.345ZM475.745 107.33C475.745 109.736 474.906 111.767 473.104 113.569L477.346 117.811C480.238 114.92 481.745 111.377 481.745 107.33H475.745ZM473.104 113.569C471.381 115.292 469.425 116.1 467.085 116.1V122.1C471.051 122.1 474.523 120.635 477.346 117.811L473.104 113.569ZM497.716 108.21L495.626 110.363L497.716 108.21ZM497.716 47.93L499.794 50.0933L499.795 50.0929L497.716 47.93ZM567.346 47.93L565.256 50.0827L565.262 50.088L565.267 50.0933L567.346 47.93ZM567.346 108.21L569.435 110.363L567.346 108.21ZM547.436 93.69L549.836 95.49L549.843 95.4798L549.851 95.4696L547.436 93.69ZM547.436 62.45L545.021 64.2296L545.028 64.2398L545.036 64.25L547.436 62.45ZM517.516 62.45L515.121 60.6433L515.116 60.65L517.516 62.45ZM517.516 93.58L515.101 95.3596L515.111 95.3732L515.121 95.3867L517.516 93.58ZM532.586 116.1C517.207 116.1 506.496 112.551 499.805 106.057L495.626 110.363C503.895 118.389 516.431 122.1 532.586 122.1V116.1ZM499.805 106.057C493.04 99.491 489.496 90.2612 489.496 77.96H483.496C483.496 91.4722 487.432 102.409 495.626 110.363L499.805 106.057ZM489.496 77.96C489.496 65.7366 493.037 56.5856 499.794 50.0933L495.637 45.7667C487.435 53.6477 483.496 64.5168 483.496 77.96H489.496ZM499.795 50.0929C506.565 43.5853 517.288 40.04 532.586 40.04V34.04C516.497 34.04 503.973 37.7547 495.637 45.7671L499.795 50.0929ZM532.586 40.04C547.886 40.04 558.563 43.5865 565.256 50.0827L569.435 45.7773C561.168 37.7535 548.672 34.04 532.586 34.04V40.04ZM565.267 50.0933C572.025 56.5856 575.566 65.7366 575.566 77.96H581.566C581.566 64.5168 577.627 53.6477 569.424 45.7667L565.267 50.0933ZM575.566 77.96C575.566 90.2612 572.021 99.491 565.256 106.057L569.435 110.363C577.63 102.409 581.566 91.4722 581.566 77.96H575.566ZM565.256 106.057C558.563 112.553 547.886 116.1 532.586 116.1V122.1C548.672 122.1 561.168 118.387 569.435 110.363L565.256 106.057ZM532.696 102.85C540.063 102.85 546.02 100.578 549.836 95.49L545.036 91.89C542.692 95.0153 538.822 96.85 532.696 96.85V102.85ZM549.851 95.4696C553.386 90.6713 555.056 84.7665 555.056 77.96H549.056C549.056 83.7668 547.645 88.3487 545.021 91.9104L549.851 95.4696ZM555.056 77.96C555.056 71.2201 553.383 65.3794 549.836 60.65L545.036 64.25C547.649 67.7339 549.056 72.2333 549.056 77.96H555.056ZM549.851 60.6704C546.042 55.5015 540.082 53.18 532.696 53.18V59.18C538.802 59.18 542.669 61.0385 545.021 64.2296L549.851 60.6704ZM532.696 53.18C525.125 53.18 519.017 55.4781 515.121 60.6433L519.911 64.2567C522.321 61.0619 526.333 59.18 532.696 59.18V53.18ZM515.116 60.65C511.569 65.3794 509.896 71.2201 509.896 77.96H515.896C515.896 72.2333 517.303 67.7339 519.916 64.25L515.116 60.65ZM509.896 77.96C509.896 84.702 511.569 90.5672 515.101 95.3596L519.931 91.8004C517.302 88.2328 515.896 83.6847 515.896 77.96H509.896ZM515.121 95.3867C519.017 100.552 525.125 102.85 532.696 102.85V96.85C526.333 96.85 522.321 94.9681 519.911 91.7733L515.121 95.3867Z"
        fill="white" />
</svg>