<svg width="850" height="88" viewBox="0 0 850 88" fill="none" xmlns="http://www.w3.org/2000/svg">
    <path
        d="M98.486 27.176C86.554 26.796 74.964 26.568 63.716 26.492V86H35.216V26.492C23.892 26.568 12.34 26.796 0.56 27.176V3.236H98.486V27.176ZM141.402 65.138C170.282 64.986 191.22 64.568 204.216 63.884C203.684 67 203.342 70.23 203.19 73.574C203.114 76.842 203.076 80.984 203.076 86H114.498C115.106 71.256 115.41 57.462 115.41 44.618C115.41 31.774 115.106 17.98 114.498 3.236H203.076V23.87H141.402V34.814C145.05 34.89 150.446 34.928 157.59 34.928C169.674 34.928 182.176 34.7 195.096 34.244V53.852C182.176 53.396 169.674 53.168 157.59 53.168C150.446 53.168 145.05 53.206 141.402 53.282V65.138ZM248.013 62.972C270.053 62.82 288.293 62.44 302.733 61.832C301.745 65.708 301.137 69.432 300.909 73.004C300.681 76.576 300.567 80.908 300.567 86H220.197C220.805 71.256 221.109 57.462 221.109 44.618C221.109 31.774 220.805 17.98 220.197 3.236H248.013V62.972ZM345.564 65.138C374.444 64.986 395.382 64.568 408.378 63.884C407.846 67 407.504 70.23 407.352 73.574C407.276 76.842 407.238 80.984 407.238 86H318.66C319.268 71.256 319.572 57.462 319.572 44.618C319.572 31.774 319.268 17.98 318.66 3.236H407.238V23.87H345.564V34.814C349.212 34.89 354.608 34.928 361.752 34.928C373.836 34.928 386.338 34.7 399.258 34.244V53.852C386.338 53.396 373.836 53.168 361.752 53.168C354.608 53.168 349.212 53.206 345.564 53.282V65.138ZM476.115 3.35C491.239 3.35 501.765 6.048 507.693 11.444C513.621 16.764 516.585 24.288 516.585 34.016C516.585 40.704 515.407 46.404 513.051 51.116C510.695 55.752 506.553 59.4 500.625 62.06C494.697 64.644 486.527 65.936 476.115 65.936H452.403V86H424.359C424.967 71.256 425.271 57.462 425.271 44.618C425.271 31.774 424.967 17.98 424.359 3.236H452.403V3.35H476.115ZM468.135 43.934C474.443 43.934 479.155 43.706 482.271 43.25C485.463 42.718 487.667 41.806 488.883 40.514C490.175 39.222 490.821 37.322 490.821 34.814C490.821 32.306 490.213 30.444 488.997 29.228C487.857 27.936 485.691 27.062 482.499 26.606C479.383 26.15 474.595 25.922 468.135 25.922H452.403V43.934H468.135ZM583.238 87.14C565.834 87.14 553.028 83.378 544.82 75.854C536.612 68.254 532.508 57.614 532.508 43.934C532.508 30.406 536.574 19.842 544.706 12.242C552.914 4.642 565.758 0.841996 583.238 0.841996C600.794 0.841996 613.638 4.642 621.77 12.242C629.978 19.842 634.082 30.406 634.082 43.934C634.082 57.69 630.016 68.33 621.884 75.854C613.752 83.378 600.87 87.14 583.238 87.14ZM583.238 63.884C591.674 63.884 597.754 62.288 601.478 59.096C605.202 55.828 607.064 50.774 607.064 43.934C607.064 37.246 605.202 32.268 601.478 29C597.754 25.732 591.674 24.098 583.238 24.098C574.878 24.098 568.836 25.732 565.112 29C561.388 32.268 559.526 37.246 559.526 43.934C559.526 50.698 561.388 55.714 565.112 58.982C568.836 62.25 574.878 63.884 583.238 63.884ZM741.55 30.824C741.55 37.436 739.916 43.022 736.648 47.582C733.456 52.142 727.946 55.448 720.118 57.5C721.03 58.716 721.676 59.666 722.056 60.35L740.524 86H709.516C706.172 79.768 700.89 70.952 693.67 59.552H676.912V86H650.008C650.616 71.256 650.92 57.462 650.92 44.618C650.92 31.774 650.616 17.98 650.008 3.236H676.912V3.35H700.282C715.634 3.35 726.35 5.82 732.43 10.76C738.51 15.7 741.55 22.388 741.55 30.824ZM676.912 25.238V38.234H692.302C698.762 38.234 703.626 38.044 706.894 37.664C710.238 37.208 712.556 36.524 713.848 35.612C715.14 34.7 715.786 33.37 715.786 31.622C715.786 29.95 715.178 28.658 713.962 27.746C712.746 26.834 710.466 26.188 707.122 25.808C703.778 25.428 698.838 25.238 692.302 25.238H676.912ZM849.737 27.176C837.805 26.796 826.215 26.568 814.967 26.492V86H786.467V26.492C775.143 26.568 763.591 26.796 751.811 27.176V3.236H849.737V27.176Z"
        fill="white" />
</svg>