<svg width="938" height="60" viewBox="0 0 938 60" fill="none" xmlns="http://www.w3.org/2000/svg">
    <path
        d="M31.534 16.542C27.25 16.326 24.082 16.2 22.03 16.164V34.632C24.118 34.596 27.286 34.47 31.534 34.254V45H0.16V34.254C4.3 34.47 7.45 34.596 9.61 34.632V16.164C7.45 16.2 4.3 16.326 0.16 16.542V5.796H31.534V16.542ZM56.9212 45C57.1372 39.708 57.2452 34.83 57.2452 30.366C57.2452 28.782 56.8492 27.522 56.0572 26.586C55.3012 25.65 54.3292 25.182 53.1412 25.182C51.9532 25.182 50.9452 25.722 50.1172 26.802C49.2892 27.846 48.8032 29.286 48.6592 31.122C48.5872 33.858 48.5512 35.802 48.5512 36.954C48.5512 39.402 48.6232 42.084 48.7672 45H35.8612C36.1492 39.816 36.2932 34.92 36.2932 30.312C36.2932 25.704 36.1492 20.772 35.8612 15.516C38.2372 15.624 40.0552 15.678 41.3152 15.678C42.6472 15.678 44.4652 15.624 46.7692 15.516L48.3352 23.454C49.1632 20.574 50.4592 18.45 52.2232 17.082C53.9872 15.678 56.0392 14.976 58.3792 14.976C60.5392 14.976 62.4112 15.462 63.9952 16.434C65.5792 17.37 66.7672 18.648 67.5592 20.268C68.3872 21.888 68.8012 23.706 68.8012 25.722V33.498C68.8012 38.286 68.8912 42.12 69.0712 45H56.9212ZM97.87 25.182C94.558 24.966 91.534 24.804 88.798 24.696L88.744 30.42C88.744 32.364 89.158 33.894 89.986 35.01C90.85 36.09 92.362 36.63 94.522 36.63C95.35 36.63 96.142 36.558 96.898 36.414C96.754 37.746 96.682 39.096 96.682 40.464C96.682 41.112 96.718 42.588 96.79 44.892C95.206 45.18 93.874 45.36 92.794 45.432C91.714 45.504 90.31 45.54 88.582 45.54C84.37 45.54 81.382 44.532 79.618 42.516C77.89 40.464 77.026 37.62 77.026 33.984L77.08 24.858C75.388 24.93 73.624 25.038 71.788 25.182V15.624C73.66 15.624 75.244 15.03 76.54 13.842C77.836 12.654 78.61 11.232 78.862 9.576H93.55C91.714 12.096 89.68 14.112 87.448 15.624H97.87V25.182ZM129.66 31.5H112.056C112.344 33.084 113.046 34.38 114.162 35.388C115.314 36.36 116.934 36.846 119.022 36.846C120.534 36.846 121.956 36.558 123.288 35.982C124.62 35.37 125.682 34.524 126.474 33.444C128.886 34.632 132.09 35.91 136.086 37.278C134.97 39.798 132.936 41.814 129.984 43.326C127.068 44.802 123.252 45.54 118.536 45.54C112.416 45.54 107.88 44.136 104.928 41.328C102.012 38.484 100.554 34.758 100.554 30.15C100.554 25.65 102.012 21.996 104.928 19.188C107.844 16.38 112.38 14.976 118.536 14.976C122.208 14.976 125.394 15.588 128.094 16.812C130.794 18.036 132.864 19.746 134.304 21.942C135.744 24.102 136.464 26.586 136.464 29.394C136.464 30.33 136.428 31.032 136.356 31.5H129.66ZM119.292 23.13C117.492 23.13 116.016 23.472 114.864 24.156C113.712 24.84 112.902 25.776 112.434 26.964H125.178C124.746 25.812 124.044 24.894 123.072 24.21C122.1 23.49 120.84 23.13 119.292 23.13ZM152.751 23.508C154.263 18.072 158.025 15.354 164.037 15.354C165.081 15.354 166.089 15.426 167.061 15.57L165.332 27.666C162.741 26.694 160.617 26.208 158.961 26.208C156.909 26.208 155.397 26.82 154.425 28.044C153.453 29.268 152.967 30.906 152.967 32.958V32.904L152.913 36.468C152.913 39.024 152.985 41.868 153.129 45H140.223C140.511 39.816 140.655 34.92 140.655 30.312C140.655 25.704 140.511 20.772 140.223 15.516C142.599 15.624 144.417 15.678 145.677 15.678C147.009 15.678 148.827 15.624 151.131 15.516L152.751 23.508ZM187.142 45.54C180.986 45.54 176.45 44.136 173.534 41.328C170.654 38.484 169.214 34.758 169.214 30.15C169.214 25.65 170.654 21.996 173.534 19.188C176.45 16.38 180.986 14.976 187.142 14.976C191.282 14.976 194.738 15.66 197.51 17.028C200.318 18.36 202.388 20.178 203.72 22.482C205.052 24.75 205.718 27.306 205.718 30.15C205.718 34.794 204.17 38.52 201.074 41.328C198.014 44.136 193.37 45.54 187.142 45.54ZM187.358 36.36C189.698 36.36 191.444 35.802 192.596 34.686C193.748 33.57 194.324 32.076 194.324 30.204C194.324 28.44 193.748 27 192.596 25.884C191.444 24.732 189.698 24.156 187.358 24.156C185.018 24.156 183.308 24.714 182.228 25.83C181.148 26.946 180.608 28.404 180.608 30.204C180.608 32.076 181.148 33.57 182.228 34.686C183.308 35.802 185.018 36.36 187.358 36.36ZM233.113 14.976C235.453 14.976 237.559 15.642 239.431 16.974C241.303 18.306 242.761 20.124 243.805 22.428C244.849 24.696 245.371 27.198 245.371 29.934C245.371 32.634 244.849 35.19 243.805 37.602C242.761 39.978 241.285 41.904 239.377 43.38C237.505 44.82 235.363 45.54 232.951 45.54C230.143 45.54 227.731 44.964 225.715 43.812C223.735 42.624 222.259 40.806 221.287 38.358C221.287 40.41 221.359 43.704 221.503 48.24C221.647 52.632 221.719 55.728 221.719 57.528H209.515C209.731 50.832 209.839 43.83 209.839 36.522C209.839 29.214 209.731 22.212 209.515 15.516H219.883L221.449 22.266C222.457 19.746 223.969 17.91 225.985 16.758C228.001 15.57 230.377 14.976 233.113 14.976ZM227.335 35.82C228.955 35.82 230.305 35.316 231.385 34.308C232.501 33.264 233.059 31.914 233.059 30.258C233.059 28.422 232.555 26.928 231.547 25.776C230.539 24.624 229.171 24.048 227.443 24.048C225.463 24.048 223.969 24.534 222.961 25.506C221.953 26.442 221.449 28.026 221.449 30.258C221.449 31.518 221.773 32.58 222.421 33.444C223.069 34.272 223.843 34.884 224.743 35.28C225.643 35.64 226.507 35.82 227.335 35.82ZM277.738 31.5H260.134C260.422 33.084 261.124 34.38 262.24 35.388C263.392 36.36 265.012 36.846 267.1 36.846C268.612 36.846 270.034 36.558 271.366 35.982C272.698 35.37 273.76 34.524 274.552 33.444C276.964 34.632 280.168 35.91 284.164 37.278C283.048 39.798 281.014 41.814 278.062 43.326C275.146 44.802 271.33 45.54 266.614 45.54C260.494 45.54 255.958 44.136 253.006 41.328C250.09 38.484 248.632 34.758 248.632 30.15C248.632 25.65 250.09 21.996 253.006 19.188C255.922 16.38 260.458 14.976 266.614 14.976C270.286 14.976 273.472 15.588 276.172 16.812C278.872 18.036 280.942 19.746 282.382 21.942C283.822 24.102 284.542 26.586 284.542 29.394C284.542 30.33 284.506 31.032 284.434 31.5H277.738ZM267.37 23.13C265.57 23.13 264.094 23.472 262.942 24.156C261.79 24.84 260.98 25.776 260.512 26.964H273.256C272.824 25.812 272.122 24.894 271.15 24.21C270.178 23.49 268.918 23.13 267.37 23.13ZM300.829 23.508C302.341 18.072 306.103 15.354 312.115 15.354C313.159 15.354 314.167 15.426 315.139 15.57L313.411 27.666C310.819 26.694 308.695 26.208 307.039 26.208C304.987 26.208 303.475 26.82 302.503 28.044C301.531 29.268 301.045 30.906 301.045 32.958V32.904L300.991 36.468C300.991 39.024 301.063 41.868 301.207 45H288.301C288.589 39.816 288.733 34.92 288.733 30.312C288.733 25.704 288.589 20.772 288.301 15.516C290.677 15.624 292.495 15.678 293.755 15.678C295.087 15.678 296.905 15.624 299.209 15.516L300.829 23.508ZM350.864 36.036C350.864 37.26 351.008 38.124 351.296 38.628C351.584 39.132 352.16 39.492 353.024 39.708L352.808 44.784C351.656 44.964 350.648 45.09 349.784 45.162C348.956 45.234 347.84 45.27 346.436 45.27C343.34 45.27 341.288 44.586 340.28 43.218C339.272 41.814 338.768 40.032 338.768 37.872V36.522C337.724 39.474 336.194 41.67 334.178 43.11C332.198 44.55 329.66 45.27 326.564 45.27C322.964 45.27 320.246 44.55 318.41 43.11C316.61 41.67 315.71 39.528 315.71 36.684C315.71 34.344 316.484 32.508 318.032 31.176C319.58 29.844 321.974 28.926 325.214 28.422C322.478 26.478 319.742 24.786 317.006 23.346C319.166 20.61 321.632 18.54 324.404 17.136C327.176 15.696 330.542 14.976 334.502 14.976C340.046 14.976 344.15 16.182 346.814 18.594C349.514 20.97 350.864 24.642 350.864 29.61V36.036ZM335.636 24.48C333.8 24.48 332.18 24.786 330.776 25.398C329.372 26.01 328.112 26.928 326.996 28.152C329.156 27.9 331.856 27.774 335.096 27.774C336.428 27.774 337.364 27.612 337.904 27.288C338.444 26.964 338.714 26.55 338.714 26.046C338.714 25.614 338.444 25.254 337.904 24.966C337.364 24.642 336.608 24.48 335.636 24.48ZM329.966 36.468C331.982 36.468 333.8 36.09 335.42 35.334C337.04 34.542 338.156 33.516 338.768 32.256V30.852C337.904 31.284 336.95 31.626 335.906 31.878C334.862 32.094 333.602 32.31 332.126 32.526L330.182 32.85C328.166 33.246 327.158 33.93 327.158 34.902C327.158 35.946 328.094 36.468 329.966 36.468ZM379.711 14.976C382.123 14.976 384.265 15.714 386.137 17.19C388.045 18.63 389.521 20.556 390.565 22.968C391.609 25.344 392.131 27.882 392.131 30.582C392.131 33.318 391.609 35.838 390.565 38.142C389.521 40.41 388.063 42.21 386.191 43.542C384.319 44.874 382.213 45.54 379.873 45.54C377.137 45.54 374.761 44.964 372.745 43.812C370.729 42.624 369.217 40.77 368.209 38.25L366.643 45H356.275C356.491 38.232 356.599 31.23 356.599 23.994C356.599 16.686 356.491 9.684 356.275 2.988H368.479L368.317 9.63C368.137 14.31 368.047 18.486 368.047 22.158C369.019 19.71 370.495 17.91 372.475 16.758C374.491 15.57 376.903 14.976 379.711 14.976ZM374.203 36.468C375.931 36.468 377.299 35.892 378.307 34.74C379.315 33.588 379.819 32.094 379.819 30.258C379.819 28.602 379.261 27.27 378.145 26.262C377.065 25.218 375.715 24.696 374.095 24.696C373.267 24.696 372.403 24.894 371.503 25.29C370.603 25.65 369.829 26.262 369.181 27.126C368.533 27.954 368.209 28.998 368.209 30.258C368.209 32.49 368.713 34.092 369.721 35.064C370.729 36 372.223 36.468 374.203 36.468ZM403.695 12.33C401.427 12.33 399.735 11.772 398.619 10.656C397.539 9.54 396.999 8.082 396.999 6.282C396.999 4.518 397.539 3.06 398.619 1.908C399.735 0.755998 401.427 0.179998 403.695 0.179998C405.855 0.179998 407.511 0.773998 408.663 1.962C409.815 3.114 410.391 4.554 410.391 6.282C410.391 8.082 409.833 9.54 408.717 10.656C407.601 11.772 405.927 12.33 403.695 12.33ZM397.431 45C397.683 39.204 397.809 34.416 397.809 30.636C397.809 26.136 397.665 21.096 397.377 15.516H410.337C410.049 20.88 409.905 25.92 409.905 30.636C409.905 34.596 410.031 39.384 410.283 45H397.431ZM427.922 23.4C427.886 25.56 427.868 28.872 427.868 33.336C427.868 38.7 427.904 42.588 427.976 45H415.232L415.286 38.898C415.358 32.202 415.394 27.036 415.394 23.4C415.394 19.944 415.358 15.048 415.286 8.712L415.232 2.88H427.976C427.904 7.992 427.868 12.168 427.868 15.408C427.868 19.008 427.886 21.672 427.922 23.4ZM439.554 12.33C437.286 12.33 435.594 11.772 434.478 10.656C433.398 9.54 432.858 8.082 432.858 6.282C432.858 4.518 433.398 3.06 434.478 1.908C435.594 0.755998 437.286 0.179998 439.554 0.179998C441.714 0.179998 443.37 0.773998 444.522 1.962C445.674 3.114 446.25 4.554 446.25 6.282C446.25 8.082 445.692 9.54 444.576 10.656C443.46 11.772 441.786 12.33 439.554 12.33ZM433.29 45C433.542 39.204 433.668 34.416 433.668 30.636C433.668 26.136 433.524 21.096 433.236 15.516H446.196C445.908 20.88 445.764 25.92 445.764 30.636C445.764 34.596 445.89 39.384 446.142 45H433.29ZM475.554 25.182C472.242 24.966 469.218 24.804 466.482 24.696L466.428 30.42C466.428 32.364 466.842 33.894 467.67 35.01C468.534 36.09 470.046 36.63 472.206 36.63C473.034 36.63 473.826 36.558 474.582 36.414C474.438 37.746 474.366 39.096 474.366 40.464C474.366 41.112 474.402 42.588 474.474 44.892C472.89 45.18 471.558 45.36 470.478 45.432C469.398 45.504 467.994 45.54 466.266 45.54C462.054 45.54 459.066 44.532 457.302 42.516C455.574 40.464 454.71 37.62 454.71 33.984L454.764 24.858C453.072 24.93 451.308 25.038 449.472 25.182V15.624C451.344 15.624 452.928 15.03 454.224 13.842C455.52 12.654 456.294 11.232 456.546 9.576H471.234C469.398 12.096 467.364 14.112 465.132 15.624H475.554V25.182ZM514.309 15.516L513.067 18.648C509.647 27.756 506.065 36.54 502.321 45C500.377 49.32 497.569 52.776 493.897 55.368C490.225 57.996 485.617 59.256 480.073 59.148C479.389 56.16 478.813 53.82 478.345 52.128C477.913 50.472 477.337 48.798 476.617 47.106C478.597 47.574 480.451 47.808 482.179 47.808C484.987 47.808 487.219 47.214 488.875 46.026C487.579 42.174 486.049 38.034 484.285 33.606C482.521 29.178 479.965 23.148 476.617 15.516H489.415C489.847 17.316 490.441 19.404 491.197 21.78C491.953 24.156 492.709 26.442 493.465 28.638C493.681 29.322 494.023 30.366 494.491 31.77C494.995 33.138 495.391 34.29 495.679 35.226L497.083 30.96C499.783 23.148 501.385 18 501.889 15.516H514.309ZM562.619 5.85C569.783 5.85 574.769 7.128 577.577 9.684C580.385 12.204 581.789 15.768 581.789 20.376C581.789 23.544 581.231 26.244 580.115 28.476C578.999 30.672 577.037 32.4 574.229 33.66C571.421 34.884 567.551 35.496 562.619 35.496H551.387V45H538.103C538.391 38.016 538.535 31.482 538.535 25.398C538.535 19.314 538.391 12.78 538.103 5.796H551.387V5.85H562.619ZM558.839 25.074C561.827 25.074 564.059 24.966 565.535 24.75C567.047 24.498 568.091 24.066 568.667 23.454C569.279 22.842 569.585 21.942 569.585 20.754C569.585 19.566 569.297 18.684 568.721 18.108C568.181 17.496 567.155 17.082 565.643 16.866C564.167 16.65 561.899 16.542 558.839 16.542H551.387V25.074H558.839ZM598.782 23.4C598.746 25.56 598.728 28.872 598.728 33.336C598.728 38.7 598.764 42.588 598.836 45H586.092L586.146 38.898C586.218 32.202 586.254 27.036 586.254 23.4C586.254 19.944 586.218 15.048 586.146 8.712L586.092 2.88H598.836C598.764 7.992 598.728 12.168 598.728 15.408C598.728 19.008 598.746 21.672 598.782 23.4ZM637.792 36.036C637.792 37.26 637.936 38.124 638.224 38.628C638.512 39.132 639.088 39.492 639.952 39.708L639.736 44.784C638.584 44.964 637.576 45.09 636.712 45.162C635.884 45.234 634.768 45.27 633.364 45.27C630.268 45.27 628.216 44.586 627.208 43.218C626.2 41.814 625.696 40.032 625.696 37.872V36.522C624.652 39.474 623.122 41.67 621.106 43.11C619.126 44.55 616.588 45.27 613.492 45.27C609.892 45.27 607.174 44.55 605.338 43.11C603.538 41.67 602.638 39.528 602.638 36.684C602.638 34.344 603.412 32.508 604.96 31.176C606.508 29.844 608.902 28.926 612.142 28.422C609.406 26.478 606.67 24.786 603.934 23.346C606.094 20.61 608.56 18.54 611.332 17.136C614.104 15.696 617.47 14.976 621.43 14.976C626.974 14.976 631.078 16.182 633.742 18.594C636.442 20.97 637.792 24.642 637.792 29.61V36.036ZM622.564 24.48C620.728 24.48 619.108 24.786 617.704 25.398C616.3 26.01 615.04 26.928 613.924 28.152C616.084 27.9 618.784 27.774 622.024 27.774C623.356 27.774 624.292 27.612 624.832 27.288C625.372 26.964 625.642 26.55 625.642 26.046C625.642 25.614 625.372 25.254 624.832 24.966C624.292 24.642 623.536 24.48 622.564 24.48ZM616.894 36.468C618.91 36.468 620.728 36.09 622.348 35.334C623.968 34.542 625.084 33.516 625.696 32.256V30.852C624.832 31.284 623.878 31.626 622.834 31.878C621.79 32.094 620.53 32.31 619.054 32.526L617.11 32.85C615.094 33.246 614.086 33.93 614.086 34.902C614.086 35.946 615.022 36.468 616.894 36.468ZM667.665 25.182C664.353 24.966 661.329 24.804 658.593 24.696L658.539 30.42C658.539 32.364 658.953 33.894 659.781 35.01C660.645 36.09 662.157 36.63 664.317 36.63C665.145 36.63 665.937 36.558 666.693 36.414C666.549 37.746 666.477 39.096 666.477 40.464C666.477 41.112 666.513 42.588 666.585 44.892C665.001 45.18 663.669 45.36 662.589 45.432C661.509 45.504 660.105 45.54 658.377 45.54C654.165 45.54 651.177 44.532 649.413 42.516C647.685 40.464 646.821 37.62 646.821 33.984L646.875 24.858C645.183 24.93 643.419 25.038 641.583 25.182V15.624C643.455 15.624 645.039 15.03 646.335 13.842C647.631 12.654 648.405 11.232 648.657 9.576H663.345C661.509 12.096 659.475 14.112 657.243 15.624H667.665V25.182ZM682.823 13.032C682.751 13.212 682.715 13.446 682.715 13.734C682.715 14.31 682.949 14.778 683.417 15.138C683.921 15.462 684.605 15.624 685.469 15.624H692.597V25.182C689.609 24.93 687.233 24.786 685.469 24.75C685.505 31.446 685.649 38.196 685.901 45H673.103C673.139 40.752 673.157 34.056 673.157 24.912C672.401 24.948 671.105 25.038 669.269 25.182V15.624H673.103V14.598C673.103 11.79 673.679 9.396 674.831 7.416C675.983 5.436 677.567 3.942 679.583 2.934C681.635 1.926 683.975 1.422 686.603 1.422C688.727 1.422 690.869 1.728 693.029 2.34C692.309 4.968 691.589 8.262 690.869 12.222L690.545 13.842C689.753 13.158 688.871 12.654 687.899 12.33C686.963 11.97 686.099 11.79 685.307 11.79C684.659 11.79 684.119 11.898 683.687 12.114C683.255 12.33 682.967 12.636 682.823 13.032ZM712.587 45.54C706.431 45.54 701.895 44.136 698.979 41.328C696.099 38.484 694.659 34.758 694.659 30.15C694.659 25.65 696.099 21.996 698.979 19.188C701.895 16.38 706.431 14.976 712.587 14.976C716.727 14.976 720.183 15.66 722.955 17.028C725.763 18.36 727.833 20.178 729.165 22.482C730.497 24.75 731.163 27.306 731.163 30.15C731.163 34.794 729.615 38.52 726.519 41.328C723.459 44.136 718.815 45.54 712.587 45.54ZM712.803 36.36C715.143 36.36 716.889 35.802 718.041 34.686C719.193 33.57 719.769 32.076 719.769 30.204C719.769 28.44 719.193 27 718.041 25.884C716.889 24.732 715.143 24.156 712.803 24.156C710.463 24.156 708.753 24.714 707.673 25.83C706.593 26.946 706.053 28.404 706.053 30.204C706.053 32.076 706.593 33.57 707.673 34.686C708.753 35.802 710.463 36.36 712.803 36.36ZM747.489 23.508C749.001 18.072 752.763 15.354 758.775 15.354C759.819 15.354 760.827 15.426 761.799 15.57L760.071 27.666C757.479 26.694 755.355 26.208 753.699 26.208C751.647 26.208 750.135 26.82 749.163 28.044C748.191 29.268 747.705 30.906 747.705 32.958V32.904L747.651 36.468C747.651 39.024 747.723 41.868 747.867 45H734.961C735.249 39.816 735.393 34.92 735.393 30.312C735.393 25.704 735.249 20.772 734.961 15.516C737.337 15.624 739.155 15.678 740.415 15.678C741.747 15.678 743.565 15.624 745.869 15.516L747.489 23.508ZM807.977 45C808.265 40.284 808.409 35.406 808.409 30.366C808.409 28.746 807.995 27.486 807.167 26.586C806.375 25.65 805.313 25.182 803.981 25.182C802.757 25.182 801.695 25.722 800.795 26.802C799.931 27.882 799.499 29.448 799.499 31.5V31.446C799.499 37.818 799.589 42.336 799.769 45H787.619C787.835 39.708 787.943 34.83 787.943 30.366C787.943 28.782 787.547 27.522 786.755 26.586C785.999 25.65 785.027 25.182 783.839 25.182C782.579 25.182 781.517 25.722 780.653 26.802C779.825 27.846 779.339 29.286 779.195 31.122C779.123 33.858 779.087 35.802 779.087 36.954C779.087 39.402 779.159 42.084 779.303 45H766.397C766.685 39.816 766.829 34.92 766.829 30.312C766.829 25.704 766.685 20.772 766.397 15.516C768.773 15.624 770.591 15.678 771.851 15.678C773.183 15.678 775.001 15.624 777.305 15.516L778.925 23.508C779.753 20.592 781.067 18.45 782.867 17.082C784.667 15.678 786.737 14.976 789.077 14.976C791.885 14.976 794.171 15.75 795.935 17.298C797.735 18.846 798.851 20.862 799.283 23.346C800.111 20.79 801.497 18.756 803.441 17.244C805.385 15.732 807.599 14.976 810.083 14.976C813.323 14.976 815.861 16.074 817.697 18.27C819.533 20.43 820.451 23.4 820.451 27.18V36.144C820.451 40.212 820.487 43.164 820.559 45H807.977ZM858.955 13.032C858.883 13.212 858.847 13.446 858.847 13.734C858.847 14.31 859.081 14.778 859.549 15.138C860.053 15.462 860.737 15.624 861.601 15.624H868.729V25.182C865.741 24.93 863.365 24.786 861.601 24.75C861.637 31.446 861.781 38.196 862.033 45H849.235C849.271 40.752 849.289 34.056 849.289 24.912C848.533 24.948 847.237 25.038 845.401 25.182V15.624H849.235V14.598C849.235 11.79 849.811 9.396 850.963 7.416C852.115 5.436 853.699 3.942 855.715 2.934C857.767 1.926 860.107 1.422 862.735 1.422C864.859 1.422 867.001 1.728 869.161 2.34C868.441 4.968 867.721 8.262 867.001 12.222L866.677 13.842C865.885 13.158 865.003 12.654 864.031 12.33C863.095 11.97 862.231 11.79 861.439 11.79C860.791 11.79 860.251 11.898 859.819 12.114C859.387 12.33 859.099 12.636 858.955 13.032ZM888.72 45.54C882.564 45.54 878.028 44.136 875.112 41.328C872.232 38.484 870.792 34.758 870.792 30.15C870.792 25.65 872.232 21.996 875.112 19.188C878.028 16.38 882.564 14.976 888.72 14.976C892.86 14.976 896.316 15.66 899.088 17.028C901.896 18.36 903.966 20.178 905.298 22.482C906.63 24.75 907.296 27.306 907.296 30.15C907.296 34.794 905.748 38.52 902.652 41.328C899.592 44.136 894.948 45.54 888.72 45.54ZM888.936 36.36C891.276 36.36 893.022 35.802 894.174 34.686C895.326 33.57 895.902 32.076 895.902 30.204C895.902 28.44 895.326 27 894.174 25.884C893.022 24.732 891.276 24.156 888.936 24.156C886.596 24.156 884.886 24.714 883.806 25.83C882.726 26.946 882.186 28.404 882.186 30.204C882.186 32.076 882.726 33.57 883.806 34.686C884.886 35.802 886.596 36.36 888.936 36.36ZM923.622 23.508C925.134 18.072 928.896 15.354 934.908 15.354C935.952 15.354 936.96 15.426 937.932 15.57L936.204 27.666C933.612 26.694 931.488 26.208 929.832 26.208C927.78 26.208 926.268 26.82 925.296 28.044C924.324 29.268 923.838 30.906 923.838 32.958V32.904L923.784 36.468C923.784 39.024 923.856 41.868 924 45H911.094C911.382 39.816 911.526 34.92 911.526 30.312C911.526 25.704 911.382 20.772 911.094 15.516C913.47 15.624 915.288 15.678 916.548 15.678C917.88 15.678 919.698 15.624 922.002 15.516L923.622 23.508Z"
        fill="white" />
</svg>